<?xml version="1.0" encoding="UTF-8" standalone="no"?>
<!DOCTYPE svg PUBLIC "-//W3C//DTD SVG 1.1//EN" "http://www.w3.org/Graphics/SVG/1.1/DTD/svg11.dtd">
<!-- 由 Microsoft Visio, SVG Export 生成 controlplane.svg Page-1 -->
<svg xmlns="http://www.w3.org/2000/svg" xmlns:xlink="http://www.w3.org/1999/xlink" xmlns:ev="http://www.w3.org/2001/xml-events"
		xmlns:v="http://schemas.microsoft.com/visio/2003/SVGExtensions/" width="6.73263in" height="3.95256in"
		viewBox="0 0 484.749 284.585" xml:space="preserve" color-interpolation-filters="sRGB" class="st42">
	<v:documentProperties v:langID="2052" v:metric="true" v:viewMarkup="false">
		<v:userDefs>
			<v:ud v:nameU="msvNoAutoConnect" v:val="VT0(0):26"/>
		</v:userDefs>
	</v:documentProperties>

	<style type="text/css">
	<![CDATA[
		.st1 {fill:#ffffff;stroke:#000000;stroke-linecap:round;stroke-linejoin:round;stroke-width:0.24}
		.st2 {fill:#dbeef3;stroke:none;stroke-linecap:round;stroke-linejoin:round;stroke-width:0.24}
		.st3 {fill:#000000;fill-opacity:0;stroke:none;stroke-linecap:butt;stroke-width:0.75}
		.st4 {fill:url(#grad7-13);stroke:none;stroke-linecap:round;stroke-linejoin:round;stroke-width:0.75}
		.st5 {fill:url(#grad0-17);stroke:none;stroke-linecap:round;stroke-linejoin:round;stroke-width:0.75}
		.st6 {fill:url(#grad10-21);stroke:none;stroke-linecap:round;stroke-linejoin:round;stroke-width:0.75}
		.st7 {fill:url(#grad0-29)}
		.st8 {stroke:none;stroke-linecap:round;stroke-linejoin:round;stroke-width:0.75}
		.st9 {fill:url(#grad3-34)}
		.st10 {stroke:#996633;stroke-linecap:butt;stroke-width:0.375}
		.st11 {fill:none}
		.st12 {stroke:#693321;stroke-linecap:round;stroke-linejoin:round;stroke-width:0.375}
		.st13 {fill:none;stroke:#000000;stroke-linecap:round;stroke-linejoin:round;stroke-width:0.72}
		.st14 {fill:#e5b9b5;stroke:none;stroke-linecap:round;stroke-linejoin:round;stroke-width:0.24}
		.st15 {fill:#000000;font-family:Calibri;font-size:1.00001em}
		.st16 {fill:#d8d8d8;stroke:none;stroke-linecap:round;stroke-linejoin:round;stroke-width:0.24}
		.st17 {fill:#dcc5ed;stroke:none;stroke-linecap:round;stroke-linejoin:round;stroke-width:0.24}
		.st18 {fill:none;stroke:none;stroke-linecap:round;stroke-linejoin:round;stroke-width:0.75}
		.st19 {fill:#000000;font-family:Calibri;font-size:1.16666em;font-weight:bold}
		.st20 {fill:#fcebdd;stroke:#000000;stroke-dasharray:1.68,1.2;stroke-linecap:round;stroke-linejoin:round;stroke-width:0.24}
		.st21 {fill:#000000;font-family:Calibri;font-size:0.666664em}
		.st22 {font-size:1em}
		.st23 {fill:#eeeaf2;stroke:#000000;stroke-linecap:round;stroke-linejoin:round;stroke-width:0.24}
		.st24 {fill:#000000;font-family:Calibri;font-size:0.833336em;font-weight:bold}
		.st25 {fill:#fff2cc;stroke:#000000;stroke-linecap:round;stroke-linejoin:round;stroke-width:0.24}
		.st26 {fill:#c05046;stroke:#000000;stroke-linecap:round;stroke-linejoin:round;stroke-width:0.24}
		.st27 {marker-end:url(#mrkr13-111);stroke:#000000;stroke-linecap:round;stroke-linejoin:round;stroke-width:1}
		.st28 {fill:#000000;fill-opacity:1;stroke:#000000;stroke-opacity:1;stroke-width:0.28409090909091}
		.st29 {fill:#000000;font-family:Calibri;font-size:0.75em}
		.st30 {fill:url(#grad7-131);stroke:none;stroke-linecap:round;stroke-linejoin:round;stroke-width:0.75}
		.st31 {fill:url(#grad0-135);stroke:none;stroke-linecap:round;stroke-linejoin:round;stroke-width:0.75}
		.st32 {fill:url(#grad10-139);stroke:none;stroke-linecap:round;stroke-linejoin:round;stroke-width:0.75}
		.st33 {fill:url(#grad0-147)}
		.st34 {stroke:#7aaf45;stroke-linecap:round;stroke-linejoin:round;stroke-width:0.375}
		.st35 {fill:#000000;font-family:Calibri;font-size:0.75em;font-weight:bold}
		.st36 {font-size:1em;font-weight:normal}
		.st37 {fill:#000000;stroke:none;stroke-linecap:round;stroke-linejoin:round;stroke-width:0.24}
		.st38 {fill:#ffffff;font-family:Calibri;font-size:1.5em;font-weight:bold}
		.st39 {marker-end:url(#mrkr13-187);stroke:#000000;stroke-linecap:round;stroke-linejoin:round;stroke-width:1.5}
		.st40 {fill:#000000;fill-opacity:1;stroke:#000000;stroke-opacity:1;stroke-width:0.37313432835821}
		.st41 {fill:#d7e3bf;stroke:none;stroke-linecap:round;stroke-linejoin:round;stroke-width:0.24}
		.st42 {fill:none;fill-rule:evenodd;font-size:12px;overflow:visible;stroke-linecap:square;stroke-miterlimit:3}
	]]>
	</style>

	<defs id="Patterns_And_Gradients">
		<radialGradient id="grad7-13" cx="0" cy="0" r="1.4">
			<stop offset="0" stop-color="#f7d7da" stop-opacity="1"/>
			<stop offset="1" stop-color="#c04f45" stop-opacity="1"/>
		</radialGradient>
		<linearGradient id="grad0-17" x1="0" y1="0" x2="1" y2="0" gradientTransform="rotate(0 0.5 0.5)">
			<stop offset="0" stop-color="#f7f3e8" stop-opacity="1"/>
			<stop offset="1" stop-color="#e89ba3" stop-opacity="1"/>
		</linearGradient>
		<pattern id="grad10-21" x="0" y="0" width="1" height="1" patternContentUnits="objectBoundingBox">
			<path d="M 0.5 0.5 L 0 0 L 0 1 z" style="fill:url(#grad0-22)"/>
			<path d="M 0.5 0.5 L 1 0 L 1 1 z" style="fill:url(#grad0-23)"/>
			<path d="M 0.5 0.5 L 0 0 L 1 0 z" style="fill:url(#grad0-24)"/>
			<path d="M 0.5 0.5 L 0 1 L 1 1 z" style="fill:url(#grad0-25)"/>
		</pattern>
		<linearGradient id="grad0-22" x1="0" y1="0" x2="1" y2="0" gradientTransform="rotate(180 0.5 0.5)">
			<stop offset="0" stop-color="#e89ba3" stop-opacity="1"/>
			<stop offset="1" stop-color="#c04f45" stop-opacity="1"/>
		</linearGradient>
		<linearGradient id="grad0-23" x1="0" y1="0" x2="1" y2="0" gradientTransform="rotate(360 0.5 0.5)">
			<stop offset="0" stop-color="#e89ba3" stop-opacity="1"/>
			<stop offset="1" stop-color="#c04f45" stop-opacity="1"/>
		</linearGradient>
		<linearGradient id="grad0-24" x1="0" y1="0" x2="1" y2="0" gradientTransform="rotate(270 0.5 0.5)">
			<stop offset="0" stop-color="#e89ba3" stop-opacity="1"/>
			<stop offset="1" stop-color="#c04f45" stop-opacity="1"/>
		</linearGradient>
		<linearGradient id="grad0-25" x1="0" y1="0" x2="1" y2="0" gradientTransform="rotate(90 0.5 0.5)">
			<stop offset="0" stop-color="#e89ba3" stop-opacity="1"/>
			<stop offset="1" stop-color="#c04f45" stop-opacity="1"/>
		</linearGradient>
		<linearGradient id="grad0-29" x1="0" y1="0" x2="1" y2="0" gradientTransform="rotate(0 0.5 0.5)">
			<stop offset="0" stop-color="#c04f45" stop-opacity="1"/>
			<stop offset="1" stop-color="#975846" stop-opacity="1"/>
		</linearGradient>
		<radialGradient id="grad3-34" cx="0.5" cy="0.5" r="0.73">
			<stop offset="0" stop-color="#ffffff" stop-opacity="1"/>
			<stop offset="1" stop-color="#da8c36" stop-opacity="1"/>
		</radialGradient>
		<radialGradient id="grad7-131" cx="0" cy="0" r="1.4">
			<stop offset="0" stop-color="#fcfdf7" stop-opacity="1"/>
			<stop offset="1" stop-color="#ebf1de" stop-opacity="1"/>
		</radialGradient>
		<linearGradient id="grad0-135" x1="0" y1="0" x2="1" y2="0" gradientTransform="rotate(0 0.5 0.5)">
			<stop offset="0" stop-color="#f7f3e8" stop-opacity="1"/>
			<stop offset="1" stop-color="#f8faed" stop-opacity="1"/>
		</linearGradient>
		<pattern id="grad10-139" x="0" y="0" width="1" height="1" patternContentUnits="objectBoundingBox">
			<path d="M 0.5 0.5 L 0 0 L 0 1 z" style="fill:url(#grad0-140)"/>
			<path d="M 0.5 0.5 L 1 0 L 1 1 z" style="fill:url(#grad0-141)"/>
			<path d="M 0.5 0.5 L 0 0 L 1 0 z" style="fill:url(#grad0-142)"/>
			<path d="M 0.5 0.5 L 0 1 L 1 1 z" style="fill:url(#grad0-143)"/>
		</pattern>
		<linearGradient id="grad0-140" x1="0" y1="0" x2="1" y2="0" gradientTransform="rotate(180 0.5 0.5)">
			<stop offset="0" stop-color="#f8faed" stop-opacity="1"/>
			<stop offset="1" stop-color="#ebf1de" stop-opacity="1"/>
		</linearGradient>
		<linearGradient id="grad0-141" x1="0" y1="0" x2="1" y2="0" gradientTransform="rotate(360 0.5 0.5)">
			<stop offset="0" stop-color="#f8faed" stop-opacity="1"/>
			<stop offset="1" stop-color="#ebf1de" stop-opacity="1"/>
		</linearGradient>
		<linearGradient id="grad0-142" x1="0" y1="0" x2="1" y2="0" gradientTransform="rotate(270 0.5 0.5)">
			<stop offset="0" stop-color="#f8faed" stop-opacity="1"/>
			<stop offset="1" stop-color="#ebf1de" stop-opacity="1"/>
		</linearGradient>
		<linearGradient id="grad0-143" x1="0" y1="0" x2="1" y2="0" gradientTransform="rotate(90 0.5 0.5)">
			<stop offset="0" stop-color="#f8faed" stop-opacity="1"/>
			<stop offset="1" stop-color="#ebf1de" stop-opacity="1"/>
		</linearGradient>
		<linearGradient id="grad0-147" x1="0" y1="0" x2="1" y2="0" gradientTransform="rotate(0 0.5 0.5)">
			<stop offset="0" stop-color="#ebf1de" stop-opacity="1"/>
			<stop offset="1" stop-color="#c7d7b5" stop-opacity="1"/>
		</linearGradient>
	</defs>
	<defs id="Markers">
		<g id="lend13">
			<path d="M 3 1 L 0 0 L 3 -1 L 3 1 " style="stroke:none"/>
		</g>
		<marker id="mrkr13-111" class="st28" v:arrowType="13" v:arrowSize="2" v:setback="10.56" refX="-10.56" orient="auto"
				markerUnits="strokeWidth" overflow="visible">
			<use xlink:href="#lend13" transform="scale(-3.52,-3.52) "/>
		</marker>
		<marker id="mrkr13-187" class="st40" v:arrowType="13" v:arrowSize="2" v:setback="8.04" refX="-8.04" orient="auto"
				markerUnits="strokeWidth" overflow="visible">
			<use xlink:href="#lend13" transform="scale(-2.68,-2.68) "/>
		</marker>
	</defs>
	<g v:mID="0" v:index="1" v:groupContext="foregroundPage">
		<v:userDefs>
			<v:ud v:nameU="AllowShapeMoveCallback" v:prompt="" v:val="VT0(1):26"/>
		</v:userDefs>
		<title>页-1</title>
		<v:pageProperties v:drawingScale="0.0393701" v:pageScale="0.0393701" v:drawingUnits="24" v:shadowOffsetX="8.50394"
				v:shadowOffsetY="-8.50394"/>
		<v:layer v:name="连接线" v:index="0"/>
		<g id="shape23-1" v:mID="23" v:groupContext="shape" transform="translate(199.086,-64.8917)">
			<title>矩形.23</title>
			<v:userDefs>
				<v:ud v:nameU="visVersion" v:val="VT0(15):26"/>
			</v:userDefs>
			<rect x="0" y="202.38" width="266.977" height="82.2047" class="st1"/>
		</g>
		<g id="shape165-3" v:mID="165" v:groupContext="shape" transform="translate(199.086,-85.212)">
			<title>矩形.165</title>
			<v:userDefs>
				<v:ud v:nameU="visVersion" v:val="VT0(15):26"/>
			</v:userDefs>
			<rect x="0" y="244.821" width="127.559" height="39.7638" class="st2"/>
		</g>
		<g id="shape44-5" v:mID="44" v:groupContext="shape" transform="translate(199.086,-18.12)">
			<title>矩形.44</title>
			<v:userDefs>
				<v:ud v:nameU="visVersion" v:val="VT0(15):26"/>
			</v:userDefs>
			<rect x="0" y="244.821" width="267.544" height="39.7638" class="st1"/>
		</g>
		<g id="group1-7" transform="translate(35.7633,-164.409)" v:mID="1" v:groupContext="group">
			<v:userDefs>
				<v:ud v:nameU="SkinColor" v:prompt="" v:val="VT5(#da8c36)"/>
				<v:ud v:nameU="visVersion" v:prompt="" v:val="VT0(15):26"/>
			</v:userDefs>
			<title>人 - 半身</title>
			<g id="shape2-8" v:mID="2" v:groupContext="shape" transform="translate(3.62866,-6.75952)">
				<title>工作表.2</title>
				<path d="M2.62 263.39 L2.42 263.47 A3.2163 3.2163 -180 0 0 0.59 266.22 L0.35 269.92 L0.19 272.59 L0 275.54 A3.10865
							 3.10865 -180 0 0 3.53 278.08 A16.7038 16.7038 -180 0 0 10.45 281.78 A165.553 165.553 -180 0 0 16.24
							 283.11 A8.24567 8.24567 -180 0 0 21.71 284.55 A8.87807 6.24831 -180 0 0 25.69 283.5 A4.4515 3.13293
							 -180 0 0 28.16 281.09 A229.977 161.856 -180 0 0 27.71 274.7 A458.878 322.954 -180 0 0 27.45 272.03 A21.0719
							 14.8302 -180 0 0 26.8 268.89 A17.0734 12.0161 -180 0 0 18.16 262.03 L18.14 260.95 A6.51051 6.51051 -180
							 0 0 21.52 255.53 A7.48506 7.48506 -180 0 0 13.63 248.92 A7.38032 7.38032 -180 0 0 5.74 255.53 A6.19158
							 6.19158 -180 0 0 8.98 260.89 L2.78 263.32 L2.62 263.39 Z" class="st3"/>
			</g>
			<g id="shape3-10" v:mID="3" v:groupContext="shape" transform="translate(3.95153,-7.51386)">
				<title>工作表.3</title>
				<path d="M0.36 269.92 L0.59 266.22 A6.51788 6.51788 0 0 1 10.97 263.86 A13.8625 13.8625 0 0 1 20.92 280.07 L21.71
							 284.55 A8.24567 8.24567 0 0 1 16.24 283.11 A165.553 165.553 0 0 1 10.45 281.78 A16.7038 16.7038 0 0
							 1 3.54 278.08 A3.10865 3.10865 0 0 1 0 275.54 L0.19 272.59 L0.36 269.92 Z" class="st4"/>
			</g>
			<g id="shape4-14" v:mID="4" v:groupContext="shape" transform="translate(6.37756,-20.6129)">
				<title>工作表.4</title>
				<path d="M17.08 284.58 L24.37 281.99 A17.0734 12.0161 -180 0 0 6.58 273.97 L0 276.57 A16.7788 11.8088 0 0 1 17.08
							 284.58 Z" class="st5"/>
			</g>
			<g id="shape5-18" v:mID="5" v:groupContext="shape" transform="translate(23.4595,-7.56159)">
				<title>工作表.5</title>
				<path d="M0 271.53 A5.94201 4.18194 0 0 1 7.29 268.94 A21.0719 14.8302 0 0 1 7.94 272.08 A458.878 322.954 0 0 1 8.2
							 274.75 A229.977 161.856 0 0 1 8.65 281.14 A4.4515 3.13293 0 0 1 6.18 283.55 A8.11829 5.71358 0 0 1 1.08
							 284.58 L0 271.53 Z" class="st6"/>
			</g>
			<g id="shape6-26" v:mID="6" v:groupContext="shape" transform="translate(13.3246,-28.1847)">
				<title>工作表.6</title>
				<path d="M0.21 281.7 L0.25 283.08 A3.29727 3.29727 -180 0 0 3.95 284.29 A11.2278 11.2278 -180 0 0 8.8 283.82 L8.76
							 281.23 A9.70649 9.70649 0 0 1 0.36 281.65 L0.21 281.7 Z" class="st7"/>
				<path d="M0.21 281.7 L0.25 283.08 A3.29727 3.29727 -180 0 0 3.95 284.29 A11.2278 11.2278 -180 0 0 8.8 283.82 L8.76
							 281.23 A9.70649 9.70649 0 0 1 0.36 281.65" class="st8"/>
			</g>
			<g id="shape7-31" v:mID="7" v:groupContext="shape" transform="translate(9.6949,-30.0246)">
				<title>工作表.7</title>
				<path d="M15.78 278.04 A7.25175 7.25175 0 0 1 7.89 284.58 A7.15742 7.15742 0 0 1 0 278.04 A7.38032 7.38032 0 0 1
							 7.89 271.43 A7.48506 7.48506 0 0 1 15.78 278.04 L-3.95 268.14 L15.78 278.04 Z" class="st9"/>
				<path d="M15.78 278.04 A7.25175 7.25175 0 0 1 7.89 284.58 A7.15742 7.15742 0 0 1 0 278.04 A7.38032 7.38032 0 0 1
							 7.89 271.43 A7.48506 7.48506 0 0 1 15.78 278.04" class="st10"/>
			</g>
			<g id="shape8-36" v:mID="8" v:groupContext="shape" transform="translate(7.59456,-9.16292)">
				<title>工作表.8</title>
				<path d="M0 279.55 L0 271.47 L0 279.55 ZM12.62 284.58 L12.62 276.5 L12.62 284.58 Z" class="st11"/>
				<path d="M0 279.55 L0 271.47M12.62 284.58 L12.62 276.5" class="st12"/>
			</g>
			<g id="shape9-39" v:mID="9" v:groupContext="shape" transform="translate(3.95014,-7.52275)">
				<title>工作表.9</title>
				<path d="M24.33 284.02 A4.83214 4.83214 -180 0 0 28.16 281.1 A154.326 154.326 -180 0 0 27.33 271 A10.9853 10.9853
							 -180 0 0 21.36 263.47 A11.2414 11.2414 -180 0 0 18.21 262.05 L18.14 260.97 A6.47339 6.47339 -180 0 0
							 21.53 255.54 A7.29634 7.29634 -180 0 0 13.64 248.93 A7.29552 7.29552 -180 0 0 5.74 255.54 A6.31734 6.31734
							 -180 0 0 9 260.88 L2.43 263.48 A3.20651 3.20651 -180 0 0 0.59 266.23 L0 275.55 A1.7869 1.7869 -180 0
							 0 0.59 277.02 A4.62331 4.62331 -180 0 0 3.54 278.08 A24.2783 24.2783 -180 0 0 16.24 283.12 A8.82265
							 8.82265 -180 0 0 24.33 284.02 Z" class="st13"/>
			</g>
		</g>
		<g id="shape11-41" v:mID="11" v:groupContext="shape" transform="translate(199.086,-64.8917)">
			<title>矩形.11</title>
			<desc>FlyMon BF-Rt interfaces</desc>
			<v:userDefs>
				<v:ud v:nameU="visVersion" v:val="VT0(15):26"/>
			</v:userDefs>
			<v:textBlock v:margins="rect(4,4,4,4)" v:tabSpace="42.5197"/>
			<v:textRect cx="90.4252" cy="276.789" width="180.86" height="15.5906"/>
			<rect x="0" y="268.994" width="180.85" height="15.5906" class="st14"/>
			<text x="32.1" y="280.39" class="st15" v:langID="2052"><v:paragraph v:horizAlign="1"/><v:tabList/>FlyMon BF-Rt interfaces</text>		</g>
		<g id="shape15-44" v:mID="15" v:groupContext="shape" transform="translate(386.442,-64.8917)">
			<title>矩形.15</title>
			<desc>Other RT</desc>
			<v:userDefs>
				<v:ud v:nameU="visVersion" v:val="VT0(15):26"/>
			</v:userDefs>
			<v:textBlock v:margins="rect(4,4,4,4)" v:tabSpace="42.5197"/>
			<v:textRect cx="40.0936" cy="276.789" width="80.19" height="15.5906"/>
			<rect x="0" y="268.994" width="80.1872" height="15.5906" class="st16"/>
			<text x="18.34" y="280.39" class="st15" v:langID="2052"><v:paragraph v:horizAlign="1"/><v:tabList/>Other RT</text>		</g>
		<g id="shape16-47" v:mID="16" v:groupContext="shape" transform="translate(199.086,-151.348)">
			<title>矩形.16</title>
			<v:userDefs>
				<v:ud v:nameU="visVersion" v:val="VT0(15):26"/>
			</v:userDefs>
			<rect x="0" y="230.421" width="266.977" height="54.1635" class="st1"/>
		</g>
		<g id="shape18-49" v:mID="18" v:groupContext="shape" transform="translate(199.086,-18.12)">
			<title>矩形.18</title>
			<desc>Tofino</desc>
			<v:userDefs>
				<v:ud v:nameU="visVersion" v:val="VT0(15):26"/>
			</v:userDefs>
			<v:textBlock v:margins="rect(4,4,4,4)" v:tabSpace="42.5197"/>
			<v:textRect cx="90.4252" cy="275.372" width="180.86" height="18.4252"/>
			<rect x="0" y="266.159" width="180.85" height="18.4252" class="st17"/>
			<text x="74.81" y="278.97" class="st15" v:langID="2052"><v:paragraph v:horizAlign="1"/><v:tabList/>Tofino</text>		</g>
		<g id="shape19-52" v:mID="19" v:groupContext="shape" transform="translate(386.442,-18.12)">
			<title>矩形.19</title>
			<desc>Other HWs</desc>
			<v:userDefs>
				<v:ud v:nameU="visVersion" v:val="VT0(15):26"/>
			</v:userDefs>
			<v:textBlock v:margins="rect(4,4,4,4)" v:tabSpace="42.5197"/>
			<v:textRect cx="40.0936" cy="275.372" width="80.19" height="18.4252"/>
			<rect x="0" y="266.159" width="80.1872" height="18.4252" class="st16"/>
			<text x="13.1" y="278.97" class="st15" v:langID="2052"><v:paragraph v:horizAlign="1"/><v:tabList/>Other HWs</text>		</g>
		<g id="shape31-55" v:mID="31" v:groupContext="shape" transform="translate(199.086,-126.142)">
			<title>工作表.31</title>
			<desc>FlyMon Runtime Library</desc>
			<v:textBlock v:margins="rect(4,4,4,4)" v:tabSpace="42.5197"/>
			<v:textRect cx="75.8268" cy="273.246" width="151.66" height="22.6772"/>
			<rect x="0" y="261.907" width="151.654" height="22.6772" class="st18"/>
			<text x="5.78" y="277.45" class="st19" v:langID="2052"><v:paragraph v:horizAlign="1"/><v:tabList/>FlyMon Runtime Library</text>		</g>
		<g id="shape32-58" v:mID="32" v:groupContext="shape" transform="translate(331.11,-84.8256)">
			<title>矩形.32</title>
			<v:userDefs>
				<v:ud v:nameU="visVersion" v:val="VT0(15):26"/>
			</v:userDefs>
			<rect x="0" y="244.821" width="134.976" height="39.7638" class="st2"/>
		</g>
		<g id="shape34-60" v:mID="34" v:groupContext="shape" transform="translate(341.886,-86.1515)">
			<title>矩形.34</title>
			<desc>Resource Abstraction</desc>
			<v:userDefs>
				<v:ud v:nameU="visVersion" v:val="VT0(15):26"/>
			</v:userDefs>
			<v:textBlock v:margins="rect(4,4,4,4)" v:tabSpace="42.5197"/>
			<v:textRect cx="24.6571" cy="276.002" width="49.32" height="17.1654"/>
			<path d="M0 284.58 L49.31 284.58 L49.31 267.42 L0 267.42 L0 284.58 Z" class="st20"/>
			<text x="9.64" y="273.6" class="st21" v:langID="2052"><v:paragraph v:horizAlign="1"/><v:tabList/>Resource<v:newlineChar/><tspan
						x="5.87" dy="1.2em" class="st22">Abstraction</tspan></text>		</g>
		<g id="shape38-64" v:mID="38" v:groupContext="shape" transform="translate(338.197,-104.882)">
			<title>工作表.38</title>
			<desc>CMU-Group Abstraction</desc>
			<v:textBlock v:margins="rect(4,4,4,4)" v:tabSpace="42.5197"/>
			<v:textRect cx="63.7795" cy="273.246" width="127.56" height="22.6772"/>
			<rect x="0" y="261.907" width="127.559" height="22.6772" class="st18"/>
			<text x="4.87" y="276.85" class="st15" v:langID="2052"><v:paragraph v:horizAlign="1"/><v:tabList/>CMU-Group Abstraction</text>		</g>
		<g id="shape39-67" v:mID="39" v:groupContext="shape" transform="translate(405.666,-86.2086)">
			<title>矩形.39</title>
			<desc>Memory Abstraction</desc>
			<v:userDefs>
				<v:ud v:nameU="visVersion" v:val="VT0(15):26"/>
			</v:userDefs>
			<v:textBlock v:margins="rect(4,4,4,4)" v:tabSpace="42.5197"/>
			<v:textRect cx="24.6571" cy="276.059" width="49.32" height="17.0511"/>
			<path d="M0 284.58 L49.31 284.58 L49.31 267.53 L0 267.53 L0 284.58 Z" class="st20"/>
			<text x="10.74" y="273.66" class="st21" v:langID="2052"><v:paragraph v:horizAlign="1"/><v:tabList/>Memory<v:newlineChar/><tspan
						x="5.87" dy="1.2em" class="st22">Abstraction</tspan></text>		</g>
		<g id="shape42-71" v:mID="42" v:groupContext="shape" transform="translate(200.813,-158.649)">
			<title>工作表.42</title>
			<desc>Control Plane</desc>
			<v:textBlock v:margins="rect(4,4,4,4)" v:tabSpace="42.5197"/>
			<v:textRect cx="28.3465" cy="266.868" width="56.7" height="35.4331"/>
			<rect x="0" y="249.152" width="56.6929" height="35.4331" class="st18"/>
			<text x="4" y="262.67" class="st19" v:langID="2052"><v:paragraph/><v:tabList/>Control<v:newlineChar/><tspan x="4"
						dy="1.2em" class="st22">Plane</tspan></text>		</g>
		<g id="shape10-75" v:mID="10" v:groupContext="shape" transform="translate(256.269,-151.404)">
			<title>矩形</title>
			<desc>Resource Manager</desc>
			<v:userDefs>
				<v:ud v:nameU="visVersion" v:val="VT0(15):26"/>
			</v:userDefs>
			<v:textBlock v:margins="rect(4,4,4,4)" v:tabSpace="42.5197"/>
			<v:textRect cx="32.8003" cy="270.428" width="65.61" height="28.3126"/>
			<rect x="0" y="256.272" width="65.6006" height="28.3126" class="st2"/>
			<text x="10.28" y="266.83" class="st15" v:langID="2052"><v:paragraph v:horizAlign="1"/><v:tabList/>Resource<v:newlineChar/><tspan
						x="10.87" dy="1.2em" class="st22">Manager</tspan></text>		</g>
		<g id="shape14-79" v:mID="14" v:groupContext="shape" transform="translate(400.462,-151.404)">
			<title>矩形.14</title>
			<desc>Data Collector</desc>
			<v:userDefs>
				<v:ud v:nameU="visVersion" v:val="VT0(15):26"/>
			</v:userDefs>
			<v:textBlock v:margins="rect(4,4,4,4)" v:tabSpace="42.5197"/>
			<v:textRect cx="32.8003" cy="270.428" width="65.61" height="28.3126"/>
			<rect x="0" y="256.272" width="65.6006" height="28.3126" class="st2"/>
			<text x="21.35" y="266.83" class="st15" v:langID="2052"><v:paragraph v:horizAlign="1"/><v:tabList/>Data<v:newlineChar/><tspan
						x="10.89" dy="1.2em" class="st22">Collector</tspan></text>		</g>
		<g id="shape41-83" v:mID="41" v:groupContext="shape" transform="translate(328.336,-151.404)">
			<title>矩形.41</title>
			<desc>Task Manager</desc>
			<v:userDefs>
				<v:ud v:nameU="visVersion" v:val="VT0(15):26"/>
			</v:userDefs>
			<v:textBlock v:margins="rect(4,4,4,4)" v:tabSpace="42.5197"/>
			<v:textRect cx="32.8003" cy="270.428" width="65.61" height="28.3126"/>
			<rect x="0" y="256.272" width="65.6006" height="28.3126" class="st2"/>
			<text x="21.93" y="266.83" class="st15" v:langID="2052"><v:paragraph v:horizAlign="1"/><v:tabList/>Task<v:newlineChar/><tspan
						x="10.87" dy="1.2em" class="st22">Manager</tspan></text>		</g>
		<g id="shape45-87" v:mID="45" v:groupContext="shape" transform="translate(199.086,-36.5452)">
			<title>工作表.45</title>
			<desc>FlyMon Data Plane</desc>
			<v:textBlock v:margins="rect(4,4,4,4)" v:tabSpace="42.5197"/>
			<v:textRect cx="63.7795" cy="273.246" width="127.56" height="22.6772"/>
			<rect x="0" y="261.907" width="127.559" height="22.6772" class="st18"/>
			<text x="8.8" y="277.45" class="st19" v:langID="2052"><v:paragraph v:horizAlign="1"/><v:tabList/>FlyMon Data Plane</text>		</g>
		<g id="shape46-90" v:mID="46" v:groupContext="shape" transform="translate(96.6727,-91.7554)">
			<title>六边形</title>
			<desc>FlyMon Compiler</desc>
			<v:userDefs>
				<v:ud v:nameU="visVersion" v:val="VT0(15):26"/>
			</v:userDefs>
			<v:textBlock v:margins="rect(4,4,4,4)" v:tabSpace="42.5197"/>
			<v:textRect cx="24.8032" cy="264.703" width="49.61" height="39.7638"/>
			<path d="M39.12 244.82 L10.48 244.82 L-3.84 264.7 L10.48 284.58 L39.12 284.58 L53.44 264.7 L39.12 244.82 Z"
					class="st23"/>
			<text x="9.17" y="261.7" class="st24" v:langID="2052"><v:paragraph v:horizAlign="1"/><v:tabList/>FlyMon<v:newlineChar/><tspan
						x="5.97" dy="1.2em" class="st22">Compiler</tspan></text>		</g>
		<g id="shape47-94" v:mID="47" v:groupContext="shape" transform="translate(102.637,-158.319)">
			<title>剪去单角的矩形</title>
			<desc>Data Plane Configs</desc>
			<v:userDefs>
				<v:ud v:nameU="CTypeTopLeftSnip" v:prompt="" v:val="VT0(0):5"/>
				<v:ud v:nameU="CTypeTopRightSnip" v:prompt="" v:val="VT0(1):5"/>
				<v:ud v:nameU="CTypeBotLeftSnip" v:prompt="" v:val="VT0(1):5"/>
				<v:ud v:nameU="CTypeBotRightSnip" v:prompt="" v:val="VT0(0):5"/>
				<v:ud v:nameU="CornerLockHoriz" v:prompt="" v:val="VT0(0):5"/>
				<v:ud v:nameU="CornerLockVert" v:prompt="" v:val="VT0(0):5"/>
				<v:ud v:nameU="CornerLockDiag" v:prompt="" v:val="VT0(0):5"/>
				<v:ud v:nameU="TopLeftOffset" v:prompt="" v:val="VT0(0):24"/>
				<v:ud v:nameU="TopRightOffset" v:prompt="" v:val="VT0(0.15748031496063):24"/>
				<v:ud v:nameU="BotLeftOffset" v:prompt="" v:val="VT0(0):24"/>
				<v:ud v:nameU="BotRightOffset" v:prompt="" v:val="VT0(0):24"/>
				<v:ud v:nameU="visVersion" v:prompt="" v:val="VT0(15):26"/>
				<v:ud v:nameU="TopRightOffset" v:prompt="" v:val="VT0(0.051377954149798):1"/>
			</v:userDefs>
			<v:textBlock v:margins="rect(4,4,4,4)" v:tabSpace="42.5197"/>
			<v:textRect cx="18.4961" cy="265.715" width="37" height="37.7394"/>
			<path d="M0 284.58 L36.99 284.58 L36.99 250.54 L33.29 246.85 L0 246.85 L0 284.58 Z" class="st25"/>
			<text x="10.86" y="258.51" class="st21" v:langID="2052"><v:paragraph v:horizAlign="1"/><v:tabList/>Data<v:newlineChar/><tspan
						x="9.5" dy="1.2em" class="st22">Plane<v:newlineChar/></tspan><tspan x="6.57" dy="1.2em" class="st22">Configs</tspan></text>		</g>
		<g id="shape48-99" v:mID="48" v:groupContext="shape" transform="translate(97.9528,387.127) rotate(180)">
			<title>普通箭头</title>
			<v:userDefs>
				<v:ud v:nameU="visVersion" v:val="VT0(15):26"/>
				<v:ud v:nameU="ArrowType" v:prompt="" v:val="VT0(2):26"/>
			</v:userDefs>
			<path d="M0 284.58 L9.92 276.74 L9.92 280.66 L19.34 280.66 L19.34 284.58 L19.34 288.51 L9.92 288.51 L9.92 292.43 L0 284.58
						 Z" class="st26"/>
		</g>
		<g id="shape49-101" v:mID="49" v:groupContext="shape" transform="translate(-163.452,150.374) rotate(-90)">
			<title>普通箭头.49</title>
			<v:userDefs>
				<v:ud v:nameU="visVersion" v:val="VT0(15):26"/>
				<v:ud v:nameU="ArrowType" v:prompt="" v:val="VT0(2):26"/>
			</v:userDefs>
			<path d="M0 284.58 L9.92 276.74 L9.92 280.66 L18.43 280.66 L18.43 284.58 L18.43 288.51 L9.92 288.51 L9.92 292.43 L0 284.58
						 Z" class="st26"/>
		</g>
		<g id="shape50-103" v:mID="50" v:groupContext="shape" transform="translate(18.375,-153.071)">
			<title>工作表.50</title>
			<desc>Operator</desc>
			<v:textBlock v:margins="rect(4,4,4,4)" v:tabSpace="42.5197"/>
			<v:textRect cx="35.1048" cy="274.585" width="70.21" height="20"/>
			<rect x="0" y="264.585" width="70.2097" height="20" class="st18"/>
			<text x="12.76" y="278.18" class="st15" v:langID="2052"><v:paragraph v:horizAlign="1"/><v:tabList/>Operator</text>		</g>
		<g id="shape124-106" v:mID="124" v:groupContext="shape" v:layerMember="0" transform="translate(150.116,-104.551)">
			<title>动态连接线</title>
			<path d="M0 277.5 L37.98 277.5" class="st27"/>
		</g>
		<g id="shape125-112" v:mID="125" v:groupContext="shape" v:layerMember="0" transform="translate(150.116,-111.637)">
			<title>动态连接线.125</title>
			<path d="M0 284.58 L-0.46 284.58 L-0.46 351.42 L38.41 351.42" class="st27"/>
		</g>
		<g id="shape127-117" v:mID="127" v:groupContext="shape" transform="translate(142.919,-115.929)">
			<title>工作表.127</title>
			<desc>CMU-Groups .json</desc>
			<v:textBlock v:margins="rect(4,4,4,4)" v:tabSpace="42.5197"/>
			<v:textRect cx="28.3465" cy="276.789" width="56.7" height="15.5906"/>
			<rect x="0" y="268.994" width="56.6929" height="15.5906" class="st18"/>
			<text x="4.57" y="274.09" class="st29" v:langID="2052"><v:paragraph v:horizAlign="1"/><v:tabList/>CMU-Groups<v:newlineChar/><tspan
						x="19.64" dy="1.2em" class="st22">.json</tspan></text>		</g>
		<g id="shape128-121" v:mID="128" v:groupContext="shape" transform="translate(156.236,-48.189)">
			<title>工作表.128</title>
			<desc>flymon .p4</desc>
			<v:textBlock v:margins="rect(4,4,4,4)" v:tabSpace="42.5197"/>
			<v:textRect cx="17.7165" cy="276.789" width="35.44" height="15.5906"/>
			<rect x="0" y="268.994" width="35.4331" height="15.5906" class="st18"/>
			<text x="4.94" y="274.09" class="st29" v:langID="2052"><v:paragraph v:horizAlign="1"/><v:tabList/>flymon<v:newlineChar/><tspan
						x="11.94" dy="1.2em" class="st22">.p4</tspan></text>		</g>
		<g id="group129-125" transform="translate(351.283,-216.978)" v:mID="129" v:groupContext="group">
			<v:userDefs>
				<v:ud v:nameU="SkinColor" v:prompt="" v:val="VT5(#da8c36)"/>
				<v:ud v:nameU="visVersion" v:prompt="" v:val="VT0(15):26"/>
			</v:userDefs>
			<title>人 - 半身.129</title>
			<g id="shape130-126" v:mID="130" v:groupContext="shape" transform="translate(3.62866,-6.75952)">
				<title>工作表.130</title>
				<path d="M2.62 263.39 L2.42 263.47 A3.2163 3.2163 -180 0 0 0.59 266.22 L0.35 269.92 L0.19 272.59 L0 275.54 A3.10865
							 3.10865 -180 0 0 3.53 278.08 A16.7038 16.7038 -180 0 0 10.45 281.78 A165.553 165.553 -180 0 0 16.24
							 283.11 A8.24567 8.24567 -180 0 0 21.71 284.55 A8.87807 6.24831 -180 0 0 25.69 283.5 A4.4515 3.13293
							 -180 0 0 28.16 281.09 A229.977 161.856 -180 0 0 27.71 274.7 A458.878 322.954 -180 0 0 27.45 272.03 A21.0719
							 14.8302 -180 0 0 26.8 268.89 A17.0734 12.0161 -180 0 0 18.16 262.03 L18.14 260.95 A6.51051 6.51051 -180
							 0 0 21.52 255.53 A7.48506 7.48506 -180 0 0 13.63 248.92 A7.38032 7.38032 -180 0 0 5.74 255.53 A6.19158
							 6.19158 -180 0 0 8.98 260.89 L2.78 263.32 L2.62 263.39 Z" class="st3"/>
			</g>
			<g id="shape131-128" v:mID="131" v:groupContext="shape" transform="translate(3.95153,-7.51386)">
				<title>工作表.131</title>
				<path d="M0.36 269.92 L0.59 266.22 A6.51788 6.51788 0 0 1 10.97 263.86 A13.8625 13.8625 0 0 1 20.92 280.07 L21.71
							 284.55 A8.24567 8.24567 0 0 1 16.24 283.11 A165.553 165.553 0 0 1 10.45 281.78 A16.7038 16.7038 0 0
							 1 3.54 278.08 A3.10865 3.10865 0 0 1 0 275.54 L0.19 272.59 L0.36 269.92 Z" class="st30"/>
			</g>
			<g id="shape132-132" v:mID="132" v:groupContext="shape" transform="translate(6.37756,-20.6129)">
				<title>工作表.132</title>
				<path d="M17.08 284.58 L24.37 281.99 A17.0734 12.0161 -180 0 0 6.58 273.97 L0 276.57 A16.7788 11.8088 0 0 1 17.08
							 284.58 Z" class="st31"/>
			</g>
			<g id="shape133-136" v:mID="133" v:groupContext="shape" transform="translate(23.4595,-7.56159)">
				<title>工作表.133</title>
				<path d="M0 271.53 A5.94201 4.18194 0 0 1 7.29 268.94 A21.0719 14.8302 0 0 1 7.94 272.08 A458.878 322.954 0 0 1 8.2
							 274.75 A229.977 161.856 0 0 1 8.65 281.14 A4.4515 3.13293 0 0 1 6.18 283.55 A8.11829 5.71358 0 0 1 1.08
							 284.58 L0 271.53 Z" class="st32"/>
			</g>
			<g id="shape134-144" v:mID="134" v:groupContext="shape" transform="translate(13.3246,-28.1847)">
				<title>工作表.134</title>
				<path d="M0.21 281.7 L0.25 283.08 A3.29727 3.29727 -180 0 0 3.95 284.29 A11.2278 11.2278 -180 0 0 8.8 283.82 L8.76
							 281.23 A9.70649 9.70649 0 0 1 0.36 281.65 L0.21 281.7 Z" class="st33"/>
				<path d="M0.21 281.7 L0.25 283.08 A3.29727 3.29727 -180 0 0 3.95 284.29 A11.2278 11.2278 -180 0 0 8.8 283.82 L8.76
							 281.23 A9.70649 9.70649 0 0 1 0.36 281.65" class="st8"/>
			</g>
			<g id="shape135-149" v:mID="135" v:groupContext="shape" transform="translate(9.6949,-30.0246)">
				<title>工作表.135</title>
				<path d="M15.78 278.04 A7.25175 7.25175 0 0 1 7.89 284.58 A7.15742 7.15742 0 0 1 0 278.04 A7.38032 7.38032 0 0 1
							 7.89 271.43 A7.48506 7.48506 0 0 1 15.78 278.04 L-3.95 268.14 L15.78 278.04 Z" class="st9"/>
				<path d="M15.78 278.04 A7.25175 7.25175 0 0 1 7.89 284.58 A7.15742 7.15742 0 0 1 0 278.04 A7.38032 7.38032 0 0 1
							 7.89 271.43 A7.48506 7.48506 0 0 1 15.78 278.04" class="st10"/>
			</g>
			<g id="shape136-153" v:mID="136" v:groupContext="shape" transform="translate(7.59456,-9.16292)">
				<title>工作表.136</title>
				<path d="M0 279.55 L0 271.47 L0 279.55 ZM12.62 284.58 L12.62 276.5 L12.62 284.58 Z" class="st11"/>
				<path d="M0 279.55 L0 271.47M12.62 284.58 L12.62 276.5" class="st34"/>
			</g>
			<g id="shape137-156" v:mID="137" v:groupContext="shape" transform="translate(3.95014,-7.52275)">
				<title>工作表.137</title>
				<path d="M24.33 284.02 A4.83214 4.83214 -180 0 0 28.16 281.1 A154.326 154.326 -180 0 0 27.33 271 A10.9853 10.9853
							 -180 0 0 21.36 263.47 A11.2414 11.2414 -180 0 0 18.21 262.05 L18.14 260.97 A6.47339 6.47339 -180 0 0
							 21.53 255.54 A7.29634 7.29634 -180 0 0 13.64 248.93 A7.29552 7.29552 -180 0 0 5.74 255.54 A6.31734 6.31734
							 -180 0 0 9 260.88 L2.43 263.48 A3.20651 3.20651 -180 0 0 0.59 266.23 L0 275.55 A1.7869 1.7869 -180 0
							 0 0.59 277.02 A4.62331 4.62331 -180 0 0 3.54 278.08 A24.2783 24.2783 -180 0 0 16.24 283.12 A8.82265
							 8.82265 -180 0 0 24.33 284.02 Z" class="st13"/>
			</g>
		</g>
		<g id="shape138-158" v:mID="138" v:groupContext="shape" transform="translate(302.952,-218.76)">
			<title>剪去单角的矩形.138</title>
			<desc>TASK key attribute memory</desc>
			<v:userDefs>
				<v:ud v:nameU="CTypeTopLeftSnip" v:prompt="" v:val="VT0(0):5"/>
				<v:ud v:nameU="CTypeTopRightSnip" v:prompt="" v:val="VT0(1):5"/>
				<v:ud v:nameU="CTypeBotLeftSnip" v:prompt="" v:val="VT0(1):5"/>
				<v:ud v:nameU="CTypeBotRightSnip" v:prompt="" v:val="VT0(0):5"/>
				<v:ud v:nameU="CornerLockHoriz" v:prompt="" v:val="VT0(0):5"/>
				<v:ud v:nameU="CornerLockVert" v:prompt="" v:val="VT0(0):5"/>
				<v:ud v:nameU="CornerLockDiag" v:prompt="" v:val="VT0(0):5"/>
				<v:ud v:nameU="TopLeftOffset" v:prompt="" v:val="VT0(0):24"/>
				<v:ud v:nameU="TopRightOffset" v:prompt="" v:val="VT0(0.15748031496063):24"/>
				<v:ud v:nameU="BotLeftOffset" v:prompt="" v:val="VT0(0):24"/>
				<v:ud v:nameU="BotRightOffset" v:prompt="" v:val="VT0(0):24"/>
				<v:ud v:nameU="visVersion" v:prompt="" v:val="VT0(15):26"/>
				<v:ud v:nameU="TopRightOffset" v:prompt="" v:val="VT0(0.059251936795527):1"/>
			</v:userDefs>
			<v:textBlock v:margins="rect(4,4,4,4)" v:tabSpace="42.5197"/>
			<v:textRect cx="21.3307" cy="262.823" width="42.67" height="43.5232"/>
			<path d="M0 284.58 L42.66 284.58 L42.66 245.33 L38.4 241.06 L0 241.06 L0 284.58 Z" class="st25"/>
			<text x="11.79" y="249.32" class="st35" v:langID="2052"><v:paragraph v:horizAlign="1"/><v:tabList/>TASK<v:newlineChar/><tspan
						x="15.01" dy="1.2em" class="st36">key<v:newlineChar/></tspan><tspan x="5.08" dy="1.2em" class="st36">attribute<v:newlineChar/></tspan><tspan
						x="5.92" dy="1.2em" class="st36">memory</tspan></text>		</g>
		<g id="shape139-164" v:mID="139" v:groupContext="shape" transform="translate(43.1802,-34.0157)">
			<title>剪去单角的矩形.139</title>
			<desc>flymon .p4_template</desc>
			<v:userDefs>
				<v:ud v:nameU="CTypeTopLeftSnip" v:prompt="" v:val="VT0(0):5"/>
				<v:ud v:nameU="CTypeTopRightSnip" v:prompt="" v:val="VT0(1):5"/>
				<v:ud v:nameU="CTypeBotLeftSnip" v:prompt="" v:val="VT0(1):5"/>
				<v:ud v:nameU="CTypeBotRightSnip" v:prompt="" v:val="VT0(0):5"/>
				<v:ud v:nameU="CornerLockHoriz" v:prompt="" v:val="VT0(0):5"/>
				<v:ud v:nameU="CornerLockVert" v:prompt="" v:val="VT0(0):5"/>
				<v:ud v:nameU="CornerLockDiag" v:prompt="" v:val="VT0(0):5"/>
				<v:ud v:nameU="TopLeftOffset" v:prompt="" v:val="VT0(0):24"/>
				<v:ud v:nameU="TopRightOffset" v:prompt="" v:val="VT0(0.15748031496063):24"/>
				<v:ud v:nameU="BotLeftOffset" v:prompt="" v:val="VT0(0):24"/>
				<v:ud v:nameU="BotRightOffset" v:prompt="" v:val="VT0(0):24"/>
				<v:ud v:nameU="visVersion" v:prompt="" v:val="VT0(15):26"/>
				<v:ud v:nameU="TopRightOffset" v:prompt="" v:val="VT0(0.078740160426672):1"/>
			</v:userDefs>
			<v:textBlock v:margins="rect(4,4,4,4)" v:tabSpace="42.5197"/>
			<v:textRect cx="28.3465" cy="273.246" width="56.7" height="22.6772"/>
			<path d="M0 284.58 L56.69 284.58 L56.69 267.58 L51.02 261.91 L0 261.91 L0 284.58 Z" class="st25"/>
			<text x="16.99" y="270.85" class="st21" v:langID="2052"><v:paragraph v:horizAlign="1"/><v:tabList/>flymon<v:newlineChar/><tspan
						x="6.42" dy="1.2em" class="st22">.p4_template</tspan></text>		</g>
		<g id="shape140-168" v:mID="140" v:groupContext="shape" v:layerMember="0" transform="translate(71.5266,-56.6929)">
			<title>动态连接线.140</title>
			<path d="M0 284.58 L0 229.64 L10.75 229.64" class="st27"/>
		</g>
		<g id="shape142-173" v:mID="142" v:groupContext="shape" transform="translate(339.944,-205.512)">
			<title>工作表.142</title>
			<desc>User</desc>
			<v:textBlock v:margins="rect(4,4,4,4)" v:tabSpace="42.5197"/>
			<v:textRect cx="28.3465" cy="274.585" width="56.7" height="20"/>
			<rect x="0" y="264.585" width="56.6929" height="20" class="st18"/>
			<text x="17.07" y="278.18" class="st15" v:langID="2052"><v:paragraph v:horizAlign="1"/><v:tabList/>User</text>		</g>
		<g id="shape148-176" v:mID="148" v:groupContext="shape" transform="translate(111.125,-64.3381)">
			<title>圆形</title>
			<desc>1</desc>
			<v:userDefs>
				<v:ud v:nameU="visVersion" v:val="VT0(15):26"/>
			</v:userDefs>
			<v:textBlock v:margins="rect(4,4,4,4)" v:tabSpace="42.5197"/>
			<v:textRect cx="10.3506" cy="274.234" width="18.12" height="15.526"/>
			<path d="M0 274.23 A10.3506 10.3506 0 0 1 20.7 274.23 A10.3506 10.3506 0 1 1 0 274.23 Z" class="st37"/>
			<text x="5.79" y="279.63" class="st38" v:langID="2052"><v:paragraph v:horizAlign="1"/><v:tabList/>1</text>		</g>
		<g id="shape151-179" v:mID="151" v:groupContext="shape" transform="translate(245.098,-218.76)">
			<title>圆形.151</title>
			<desc>2</desc>
			<v:userDefs>
				<v:ud v:nameU="visVersion" v:val="VT0(15):26"/>
			</v:userDefs>
			<v:textBlock v:margins="rect(4,4,4,4)" v:tabSpace="42.5197"/>
			<v:textRect cx="10.3506" cy="274.234" width="18.12" height="15.526"/>
			<path d="M0 274.23 A10.3506 10.3506 0 0 1 20.7 274.23 A10.3506 10.3506 0 1 1 0 274.23 Z" class="st37"/>
			<text x="5.79" y="279.63" class="st38" v:langID="2052"><v:paragraph v:horizAlign="1"/><v:tabList/>2</text>		</g>
		<g id="shape155-182" v:mID="155" v:groupContext="shape" v:layerMember="0" transform="translate(302.952,-240.522)">
			<title>动态连接线.155</title>
			<path d="M0 284.58 L-30.64 284.58 L-30.64 307.46" class="st39"/>
		</g>
		<g id="shape157-188" v:mID="157" v:groupContext="shape" transform="translate(256.705,-185.512)">
			<title>矩形.157</title>
			<desc>FlyMon Interpreter</desc>
			<v:userDefs>
				<v:ud v:nameU="visVersion" v:val="VT0(15):26"/>
			</v:userDefs>
			<v:textBlock v:margins="rect(4,4,4,4)" v:tabSpace="42.5197"/>
			<v:textRect cx="104.679" cy="274.585" width="209.36" height="20"/>
			<rect x="0" y="264.585" width="209.357" height="20" class="st41"/>
			<text x="57.96" y="278.18" class="st15" v:langID="1033"><v:paragraph v:horizAlign="1"/><v:tabList/>FlyMon Interpreter</text>		</g>
		<g id="shape159-191" v:mID="159" v:groupContext="shape" v:layerMember="0" transform="translate(389.527,-239.89)">
			<title>动态连接线.159</title>
			<path d="M0 284.58 L51.38 284.58 L51.38 305.69" class="st39"/>
		</g>
		<g id="shape161-196" v:mID="161" v:groupContext="shape" transform="translate(445.361,-218.268)">
			<title>圆形.161</title>
			<desc>3</desc>
			<v:userDefs>
				<v:ud v:nameU="visVersion" v:val="VT0(15):26"/>
			</v:userDefs>
			<v:textBlock v:margins="rect(4,4,4,4)" v:tabSpace="42.5197"/>
			<v:textRect cx="10.3506" cy="274.234" width="18.12" height="15.526"/>
			<path d="M0 274.23 A10.3506 10.3506 0 0 1 20.7 274.23 A10.3506 10.3506 0 1 1 0 274.23 Z" class="st37"/>
			<text x="5.79" y="279.63" class="st38" v:langID="2052"><v:paragraph v:horizAlign="1"/><v:tabList/>3</text>		</g>
		<g id="shape163-199" v:mID="163" v:groupContext="shape" transform="translate(382.464,-216.978)">
			<title>工作表.163</title>
			<desc>Query(task, key)</desc>
			<v:textBlock v:margins="rect(4,4,4,4)" v:tabSpace="42.5197"/>
			<v:textRect cx="29.2202" cy="274.585" width="58.45" height="20"/>
			<rect x="0" y="264.585" width="58.4405" height="20" class="st18"/>
			<text x="7.77" y="271.88" class="st35" v:langID="2052"><v:paragraph v:horizAlign="1"/><v:tabList/>Query<tspan
						class="st36">(task, </tspan><tspan x="21.53" dy="1.2em" class="st36">key)</tspan></text>		</g>
		<g id="shape166-204" v:mID="166" v:groupContext="shape" transform="translate(199.086,-104.882)">
			<title>工作表.166</title>
			<desc>Task Abstraction</desc>
			<v:textBlock v:margins="rect(4,4,4,4)" v:tabSpace="42.5197"/>
			<v:textRect cx="63.7795" cy="273.246" width="127.56" height="22.6772"/>
			<rect x="0" y="261.907" width="127.559" height="22.6772" class="st18"/>
			<text x="23.36" y="276.85" class="st15" v:langID="2052"><v:paragraph v:horizAlign="1"/><v:tabList/>Task Abstraction</text>		</g>
		<g id="shape170-207" v:mID="170" v:groupContext="shape" transform="translate(209.531,-86.1515)">
			<title>矩形.170</title>
			<desc>Key Abstraction</desc>
			<v:userDefs>
				<v:ud v:nameU="visVersion" v:val="VT0(15):26"/>
			</v:userDefs>
			<v:textBlock v:margins="rect(4,4,4,4)" v:tabSpace="42.5197"/>
			<v:textRect cx="24.6571" cy="276.002" width="49.32" height="17.1654"/>
			<path d="M0 284.58 L49.31 284.58 L49.31 267.42 L0 267.42 L0 284.58 Z" class="st20"/>
			<text x="18.78" y="273.6" class="st21" v:langID="2052"><v:paragraph v:horizAlign="1"/><v:tabList/>Key<v:newlineChar/><tspan
						x="5.87" dy="1.2em" class="st22">Abstraction</tspan></text>		</g>
		<g id="shape171-211" v:mID="171" v:groupContext="shape" transform="translate(264.854,-86.1515)">
			<title>矩形.171</title>
			<desc>Attribute Abstraction</desc>
			<v:userDefs>
				<v:ud v:nameU="visVersion" v:val="VT0(15):26"/>
			</v:userDefs>
			<v:textBlock v:margins="rect(4,4,4,4)" v:tabSpace="42.5197"/>
			<v:textRect cx="24.6571" cy="276.002" width="49.32" height="17.1654"/>
			<path d="M0 284.58 L49.31 284.58 L49.31 267.42 L0 267.42 L0 284.58 Z" class="st20"/>
			<text x="9.82" y="273.6" class="st21" v:langID="2052"><v:paragraph v:horizAlign="1"/><v:tabList/>Attribute<v:newlineChar/><tspan
						x="5.87" dy="1.2em" class="st22">Abstraction</tspan></text>		</g>
	</g>
</svg>
