<?xml version="1.0" encoding="UTF-8" standalone="no"?>
<!DOCTYPE svg PUBLIC "-//W3C//DTD SVG 1.1//EN" "http://www.w3.org/Graphics/SVG/1.1/DTD/svg11.dtd">
<!-- 由 Microsoft Visio, SVG Export 生成 controlplane.svg Page-1 -->
<svg xmlns="http://www.w3.org/2000/svg" xmlns:xlink="http://www.w3.org/1999/xlink" xmlns:ev="http://www.w3.org/2001/xml-events"
		xmlns:v="http://schemas.microsoft.com/visio/2003/SVGExtensions/" width="7.60142in" height="3.95147in"
		viewBox="0 0 547.303 284.506" xml:space="preserve" color-interpolation-filters="sRGB" class="st38">
	<v:documentProperties v:langID="2052" v:metric="true" v:viewMarkup="false">
		<v:userDefs>
			<v:ud v:nameU="msvNoAutoConnect" v:val="VT0(0):26"/>
		</v:userDefs>
	</v:documentProperties>

	<style type="text/css">
	<![CDATA[
		.st1 {fill:#ffffff;stroke:#000000;stroke-linecap:round;stroke-linejoin:round;stroke-width:0.24}
		.st2 {fill:#000000;fill-opacity:0;stroke:none;stroke-linecap:butt;stroke-width:0.75}
		.st3 {fill:url(#grad7-11);stroke:none;stroke-linecap:round;stroke-linejoin:round;stroke-width:0.75}
		.st4 {fill:url(#grad0-15);stroke:none;stroke-linecap:round;stroke-linejoin:round;stroke-width:0.75}
		.st5 {fill:url(#grad10-19);stroke:none;stroke-linecap:round;stroke-linejoin:round;stroke-width:0.75}
		.st6 {fill:url(#grad0-27)}
		.st7 {stroke:none;stroke-linecap:round;stroke-linejoin:round;stroke-width:0.75}
		.st8 {fill:url(#grad3-32)}
		.st9 {stroke:#996633;stroke-linecap:butt;stroke-width:0.375}
		.st10 {fill:none}
		.st11 {stroke:#693321;stroke-linecap:round;stroke-linejoin:round;stroke-width:0.375}
		.st12 {fill:none;stroke:#000000;stroke-linecap:round;stroke-linejoin:round;stroke-width:0.72}
		.st13 {fill:#dbeef3;stroke:none;stroke-linecap:round;stroke-linejoin:round;stroke-width:0.24}
		.st14 {fill:#000000;font-family:Calibri;font-size:1.00001em}
		.st15 {fill:#d8d8d8;stroke:none;stroke-linecap:round;stroke-linejoin:round;stroke-width:0.24}
		.st16 {fill:none;stroke:none;stroke-linecap:round;stroke-linejoin:round;stroke-width:0.75}
		.st17 {fill:#000000;font-family:Calibri;font-size:1.16666em;font-weight:bold}
		.st18 {fill:#fcebdd;stroke:#000000;stroke-dasharray:1.68,1.2;stroke-linecap:round;stroke-linejoin:round;stroke-width:0.24}
		.st19 {fill:#000000;font-family:Calibri;font-size:0.75em}
		.st20 {font-size:1em}
		.st21 {fill:#eeeaf2;stroke:#000000;stroke-linecap:round;stroke-linejoin:round;stroke-width:0.24}
		.st22 {fill:#000000;font-family:Calibri;font-size:0.833336em;font-weight:bold}
		.st23 {fill:#fff2cc;stroke:#000000;stroke-linecap:round;stroke-linejoin:round;stroke-width:0.24}
		.st24 {fill:#000000;font-family:Calibri;font-size:0.666664em}
		.st25 {fill:#c05046;stroke:#000000;stroke-linecap:round;stroke-linejoin:round;stroke-width:0.24}
		.st26 {marker-end:url(#mrkr13-107);stroke:#000000;stroke-linecap:round;stroke-linejoin:round;stroke-width:0.239976}
		.st27 {fill:#000000;fill-opacity:1;stroke:#000000;stroke-opacity:1;stroke-width:0.086948582161584}
		.st28 {fill:url(#grad7-127);stroke:none;stroke-linecap:round;stroke-linejoin:round;stroke-width:0.75}
		.st29 {fill:url(#grad0-131);stroke:none;stroke-linecap:round;stroke-linejoin:round;stroke-width:0.75}
		.st30 {fill:url(#grad10-135);stroke:none;stroke-linecap:round;stroke-linejoin:round;stroke-width:0.75}
		.st31 {fill:url(#grad0-143)}
		.st32 {stroke:#7aaf45;stroke-linecap:round;stroke-linejoin:round;stroke-width:0.375}
		.st33 {fill:#000000;font-family:Calibri;font-size:0.75em;font-weight:bold}
		.st34 {font-size:1em;font-weight:normal}
		.st35 {fill:#ebf1df;stroke:#000000;stroke-linecap:round;stroke-linejoin:round;stroke-width:0.24}
		.st36 {fill:#000000;stroke:none;stroke-linecap:round;stroke-linejoin:round;stroke-width:0.24}
		.st37 {fill:#ffffff;font-family:Calibri;font-size:1.99999em;font-weight:bold}
		.st38 {fill:none;fill-rule:evenodd;font-size:12px;overflow:visible;stroke-linecap:square;stroke-miterlimit:3}
	]]>
	</style>

	<defs id="Patterns_And_Gradients">
		<radialGradient id="grad7-11" cx="0" cy="0" r="1.4">
			<stop offset="0" stop-color="#f7d7da" stop-opacity="1"/>
			<stop offset="1" stop-color="#c04f45" stop-opacity="1"/>
		</radialGradient>
		<linearGradient id="grad0-15" x1="0" y1="0" x2="1" y2="0" gradientTransform="rotate(0 0.5 0.5)">
			<stop offset="0" stop-color="#f7f3e8" stop-opacity="1"/>
			<stop offset="1" stop-color="#e89ba3" stop-opacity="1"/>
		</linearGradient>
		<pattern id="grad10-19" x="0" y="0" width="1" height="1" patternContentUnits="objectBoundingBox">
			<path d="M 0.5 0.5 L 0 0 L 0 1 z" style="fill:url(#grad0-20)"/>
			<path d="M 0.5 0.5 L 1 0 L 1 1 z" style="fill:url(#grad0-21)"/>
			<path d="M 0.5 0.5 L 0 0 L 1 0 z" style="fill:url(#grad0-22)"/>
			<path d="M 0.5 0.5 L 0 1 L 1 1 z" style="fill:url(#grad0-23)"/>
		</pattern>
		<linearGradient id="grad0-20" x1="0" y1="0" x2="1" y2="0" gradientTransform="rotate(180 0.5 0.5)">
			<stop offset="0" stop-color="#e89ba3" stop-opacity="1"/>
			<stop offset="1" stop-color="#c04f45" stop-opacity="1"/>
		</linearGradient>
		<linearGradient id="grad0-21" x1="0" y1="0" x2="1" y2="0" gradientTransform="rotate(360 0.5 0.5)">
			<stop offset="0" stop-color="#e89ba3" stop-opacity="1"/>
			<stop offset="1" stop-color="#c04f45" stop-opacity="1"/>
		</linearGradient>
		<linearGradient id="grad0-22" x1="0" y1="0" x2="1" y2="0" gradientTransform="rotate(270 0.5 0.5)">
			<stop offset="0" stop-color="#e89ba3" stop-opacity="1"/>
			<stop offset="1" stop-color="#c04f45" stop-opacity="1"/>
		</linearGradient>
		<linearGradient id="grad0-23" x1="0" y1="0" x2="1" y2="0" gradientTransform="rotate(90 0.5 0.5)">
			<stop offset="0" stop-color="#e89ba3" stop-opacity="1"/>
			<stop offset="1" stop-color="#c04f45" stop-opacity="1"/>
		</linearGradient>
		<linearGradient id="grad0-27" x1="0" y1="0" x2="1" y2="0" gradientTransform="rotate(0 0.5 0.5)">
			<stop offset="0" stop-color="#c04f45" stop-opacity="1"/>
			<stop offset="1" stop-color="#975846" stop-opacity="1"/>
		</linearGradient>
		<radialGradient id="grad3-32" cx="0.5" cy="0.5" r="0.73">
			<stop offset="0" stop-color="#ffffff" stop-opacity="1"/>
			<stop offset="1" stop-color="#da8c36" stop-opacity="1"/>
		</radialGradient>
		<radialGradient id="grad7-127" cx="0" cy="0" r="1.4">
			<stop offset="0" stop-color="#fcfdf7" stop-opacity="1"/>
			<stop offset="1" stop-color="#ebf1de" stop-opacity="1"/>
		</radialGradient>
		<linearGradient id="grad0-131" x1="0" y1="0" x2="1" y2="0" gradientTransform="rotate(0 0.5 0.5)">
			<stop offset="0" stop-color="#f7f3e8" stop-opacity="1"/>
			<stop offset="1" stop-color="#f8faed" stop-opacity="1"/>
		</linearGradient>
		<pattern id="grad10-135" x="0" y="0" width="1" height="1" patternContentUnits="objectBoundingBox">
			<path d="M 0.5 0.5 L 0 0 L 0 1 z" style="fill:url(#grad0-136)"/>
			<path d="M 0.5 0.5 L 1 0 L 1 1 z" style="fill:url(#grad0-137)"/>
			<path d="M 0.5 0.5 L 0 0 L 1 0 z" style="fill:url(#grad0-138)"/>
			<path d="M 0.5 0.5 L 0 1 L 1 1 z" style="fill:url(#grad0-139)"/>
		</pattern>
		<linearGradient id="grad0-136" x1="0" y1="0" x2="1" y2="0" gradientTransform="rotate(180 0.5 0.5)">
			<stop offset="0" stop-color="#f8faed" stop-opacity="1"/>
			<stop offset="1" stop-color="#ebf1de" stop-opacity="1"/>
		</linearGradient>
		<linearGradient id="grad0-137" x1="0" y1="0" x2="1" y2="0" gradientTransform="rotate(360 0.5 0.5)">
			<stop offset="0" stop-color="#f8faed" stop-opacity="1"/>
			<stop offset="1" stop-color="#ebf1de" stop-opacity="1"/>
		</linearGradient>
		<linearGradient id="grad0-138" x1="0" y1="0" x2="1" y2="0" gradientTransform="rotate(270 0.5 0.5)">
			<stop offset="0" stop-color="#f8faed" stop-opacity="1"/>
			<stop offset="1" stop-color="#ebf1de" stop-opacity="1"/>
		</linearGradient>
		<linearGradient id="grad0-139" x1="0" y1="0" x2="1" y2="0" gradientTransform="rotate(90 0.5 0.5)">
			<stop offset="0" stop-color="#f8faed" stop-opacity="1"/>
			<stop offset="1" stop-color="#ebf1de" stop-opacity="1"/>
		</linearGradient>
		<linearGradient id="grad0-143" x1="0" y1="0" x2="1" y2="0" gradientTransform="rotate(0 0.5 0.5)">
			<stop offset="0" stop-color="#ebf1de" stop-opacity="1"/>
			<stop offset="1" stop-color="#c7d7b5" stop-opacity="1"/>
		</linearGradient>
	</defs>
	<defs id="Markers">
		<g id="lend13">
			<path d="M 3 1 L 0 0 L 3 -1 L 3 1 " style="stroke:none"/>
		</g>
		<marker id="mrkr13-107" class="st27" v:arrowType="13" v:arrowSize="2" v:setback="34.5032" refX="-34.503150315032"
				orient="auto" markerUnits="strokeWidth" overflow="visible">
			<use xlink:href="#lend13" transform="scale(-11.501050105011,-11.501050105011) "/>
		</marker>
	</defs>
	<g v:mID="0" v:index="1" v:groupContext="foregroundPage">
		<v:userDefs>
			<v:ud v:nameU="AllowShapeMoveCallback" v:prompt="" v:val="VT0(1):26"/>
		</v:userDefs>
		<title>页-1</title>
		<v:pageProperties v:drawingScale="0.0393701" v:pageScale="0.0393701" v:drawingUnits="24" v:shadowOffsetX="8.50394"
				v:shadowOffsetY="-8.50394"/>
		<v:layer v:name="连接线" v:index="0"/>
		<g id="shape44-1" v:mID="44" v:groupContext="shape" transform="translate(191.669,-18.12)">
			<title>矩形.44</title>
			<v:userDefs>
				<v:ud v:nameU="visVersion" v:val="VT0(15):26"/>
			</v:userDefs>
			<rect x="0" y="244.742" width="297.638" height="39.7638" class="st1"/>
		</g>
		<g id="shape23-3" v:mID="23" v:groupContext="shape" transform="translate(191.669,-64.8917)">
			<title>矩形.23</title>
			<v:userDefs>
				<v:ud v:nameU="visVersion" v:val="VT0(15):26"/>
			</v:userDefs>
			<rect x="0" y="202.301" width="297.638" height="82.2047" class="st1"/>
		</g>
		<g id="group1-5" transform="translate(35.7633,-150.441)" v:mID="1" v:groupContext="group">
			<v:userDefs>
				<v:ud v:nameU="SkinColor" v:prompt="" v:val="VT5(#da8c36)"/>
				<v:ud v:nameU="visVersion" v:prompt="" v:val="VT0(15):26"/>
			</v:userDefs>
			<title>人 - 半身</title>
			<g id="shape2-6" v:mID="2" v:groupContext="shape" transform="translate(3.62866,-6.75952)">
				<title>工作表.2</title>
				<path d="M2.62 263.31 L2.42 263.39 A3.2163 3.2163 -180 0 0 0.59 266.15 L0.35 269.84 L0.19 272.51 L0 275.47 A3.10865
							 3.10865 -180 0 0 3.53 278 A16.7038 16.7038 -180 0 0 10.45 281.7 A165.553 165.553 -180 0 0 16.24 283.03
							 A8.24567 8.24567 -180 0 0 21.71 284.47 A8.87807 6.24831 -180 0 0 25.69 283.42 A4.4515 3.13293 -180 0
							 0 28.16 281.01 A229.977 161.856 -180 0 0 27.71 274.62 A458.878 322.954 -180 0 0 27.45 271.95 A21.0719
							 14.8302 -180 0 0 26.8 268.81 A17.0734 12.0161 -180 0 0 18.16 261.95 L18.14 260.87 A6.51051 6.51051 -180
							 0 0 21.52 255.45 A7.48506 7.48506 -180 0 0 13.63 248.84 A7.38032 7.38032 -180 0 0 5.74 255.45 A6.19158
							 6.19158 -180 0 0 8.98 260.81 L2.78 263.25 L2.62 263.31 Z" class="st2"/>
			</g>
			<g id="shape3-8" v:mID="3" v:groupContext="shape" transform="translate(3.95153,-7.51386)">
				<title>工作表.3</title>
				<path d="M0.36 269.84 L0.59 266.15 A6.51788 6.51788 0 0 1 10.97 263.78 A13.8625 13.8625 0 0 1 20.92 279.99 L21.71
							 284.47 A8.24567 8.24567 0 0 1 16.24 283.03 A165.553 165.553 0 0 1 10.45 281.7 A16.7038 16.7038 0 0 1
							 3.54 278 A3.10865 3.10865 0 0 1 0 275.47 L0.19 272.51 L0.36 269.84 Z" class="st3"/>
			</g>
			<g id="shape4-12" v:mID="4" v:groupContext="shape" transform="translate(6.37756,-20.6129)">
				<title>工作表.4</title>
				<path d="M17.08 284.51 L24.37 281.91 A17.0734 12.0161 -180 0 0 6.58 273.89 L0 276.49 A16.7788 11.8088 0 0 1 17.08
							 284.51 Z" class="st4"/>
			</g>
			<g id="shape5-16" v:mID="5" v:groupContext="shape" transform="translate(23.4595,-7.56159)">
				<title>工作表.5</title>
				<path d="M0 271.45 A5.94201 4.18194 0 0 1 7.29 268.86 A21.0719 14.8302 0 0 1 7.94 272 A458.878 322.954 0 0 1 8.2
							 274.67 A229.977 161.856 0 0 1 8.65 281.06 A4.4515 3.13293 0 0 1 6.18 283.47 A8.11829 5.71358 0 0 1 1.08
							 284.5 L0 271.45 Z" class="st5"/>
			</g>
			<g id="shape6-24" v:mID="6" v:groupContext="shape" transform="translate(13.3246,-28.1847)">
				<title>工作表.6</title>
				<path d="M0.21 281.62 L0.25 283 A3.29727 3.29727 -180 0 0 3.95 284.21 A11.2278 11.2278 -180 0 0 8.8 283.74 L8.76
							 281.15 A9.70649 9.70649 0 0 1 0.36 281.57 L0.21 281.62 Z" class="st6"/>
				<path d="M0.21 281.62 L0.25 283 A3.29727 3.29727 -180 0 0 3.95 284.21 A11.2278 11.2278 -180 0 0 8.8 283.74 L8.76
							 281.15 A9.70649 9.70649 0 0 1 0.36 281.57" class="st7"/>
			</g>
			<g id="shape7-29" v:mID="7" v:groupContext="shape" transform="translate(9.6949,-30.0246)">
				<title>工作表.7</title>
				<path d="M15.78 277.96 A7.25175 7.25175 0 0 1 7.89 284.51 A7.15742 7.15742 0 0 1 0 277.96 A7.38032 7.38032 0 0 1
							 7.89 271.35 A7.48506 7.48506 0 0 1 15.78 277.96 L-3.95 268.06 L15.78 277.96 Z" class="st8"/>
				<path d="M15.78 277.96 A7.25175 7.25175 0 0 1 7.89 284.51 A7.15742 7.15742 0 0 1 0 277.96 A7.38032 7.38032 0 0 1
							 7.89 271.35 A7.48506 7.48506 0 0 1 15.78 277.96" class="st9"/>
			</g>
			<g id="shape8-34" v:mID="8" v:groupContext="shape" transform="translate(7.59456,-9.16292)">
				<title>工作表.8</title>
				<path d="M0 279.47 L0 271.39 L0 279.47 ZM12.62 284.51 L12.62 276.42 L12.62 284.51 Z" class="st10"/>
				<path d="M0 279.47 L0 271.39M12.62 284.51 L12.62 276.42" class="st11"/>
			</g>
			<g id="shape9-37" v:mID="9" v:groupContext="shape" transform="translate(3.95014,-7.52275)">
				<title>工作表.9</title>
				<path d="M24.33 283.94 A4.83214 4.83214 -180 0 0 28.16 281.02 A154.326 154.326 -180 0 0 27.33 270.92 A10.9853 10.9853
							 -180 0 0 21.36 263.39 A11.2414 11.2414 -180 0 0 18.21 261.98 L18.14 260.89 A6.47339 6.47339 -180 0 0
							 21.53 255.46 A7.29634 7.29634 -180 0 0 13.64 248.85 A7.29552 7.29552 -180 0 0 5.74 255.46 A6.31734 6.31734
							 -180 0 0 9 260.8 L2.43 263.4 A3.20651 3.20651 -180 0 0 0.59 266.15 L0 275.48 A1.7869 1.7869 -180 0 0
							 0.59 276.94 A4.62331 4.62331 -180 0 0 3.54 278.01 A24.2783 24.2783 -180 0 0 16.24 283.04 A8.82265 8.82265
							 -180 0 0 24.33 283.94 Z" class="st12"/>
			</g>
		</g>
		<g id="shape11-39" v:mID="11" v:groupContext="shape" transform="translate(191.669,-64.8917)">
			<title>矩形.11</title>
			<desc>FlyMon BF-Rt interfaces</desc>
			<v:userDefs>
				<v:ud v:nameU="visVersion" v:val="VT0(15):26"/>
			</v:userDefs>
			<v:textBlock v:margins="rect(4,4,4,4)" v:tabSpace="42.5197"/>
			<v:textRect cx="90.4252" cy="276.711" width="180.86" height="15.5906"/>
			<rect x="0" y="268.915" width="180.85" height="15.5906" class="st13"/>
			<text x="32.1" y="280.31" class="st14" v:langID="2052"><v:paragraph v:horizAlign="1"/><v:tabList/>FlyMon BF-Rt interfaces</text>		</g>
		<g id="shape15-42" v:mID="15" v:groupContext="shape" transform="translate(379.025,-64.8917)">
			<title>矩形.15</title>
			<desc>Other Runtimes</desc>
			<v:userDefs>
				<v:ud v:nameU="visVersion" v:val="VT0(15):26"/>
			</v:userDefs>
			<v:textBlock v:margins="rect(4,4,4,4)" v:tabSpace="42.5197"/>
			<v:textRect cx="55.1406" cy="276.711" width="110.29" height="15.5906"/>
			<rect x="0" y="268.915" width="110.281" height="15.5906" class="st15"/>
			<text x="16.5" y="280.31" class="st14" v:langID="2052"><v:paragraph v:horizAlign="1"/><v:tabList/>Other Runtimes</text>		</g>
		<g id="shape16-45" v:mID="16" v:groupContext="shape" transform="translate(191.669,-151.348)">
			<title>矩形.16</title>
			<v:userDefs>
				<v:ud v:nameU="visVersion" v:val="VT0(15):26"/>
			</v:userDefs>
			<rect x="0" y="238.435" width="297.638" height="46.0704" class="st1"/>
		</g>
		<g id="shape18-47" v:mID="18" v:groupContext="shape" transform="translate(191.669,-18.12)">
			<title>矩形.18</title>
			<desc>Tofino</desc>
			<v:userDefs>
				<v:ud v:nameU="visVersion" v:val="VT0(15):26"/>
			</v:userDefs>
			<v:textBlock v:margins="rect(4,4,4,4)" v:tabSpace="42.5197"/>
			<v:textRect cx="90.4252" cy="275.293" width="180.86" height="18.4252"/>
			<rect x="0" y="266.081" width="180.85" height="18.4252" class="st13"/>
			<text x="74.81" y="278.89" class="st14" v:langID="2052"><v:paragraph v:horizAlign="1"/><v:tabList/>Tofino</text>		</g>
		<g id="shape19-50" v:mID="19" v:groupContext="shape" transform="translate(379.025,-18.12)">
			<title>矩形.19</title>
			<desc>Other HWs</desc>
			<v:userDefs>
				<v:ud v:nameU="visVersion" v:val="VT0(15):26"/>
			</v:userDefs>
			<v:textBlock v:margins="rect(4,4,4,4)" v:tabSpace="42.5197"/>
			<v:textRect cx="55.1406" cy="275.293" width="110.29" height="18.4252"/>
			<rect x="0" y="266.081" width="110.281" height="18.4252" class="st15"/>
			<text x="28.15" y="278.89" class="st14" v:langID="2052"><v:paragraph v:horizAlign="1"/><v:tabList/>Other HWs</text>		</g>
		<g id="shape31-53" v:mID="31" v:groupContext="shape" transform="translate(188.834,-125.059)">
			<title>工作表.31</title>
			<desc>FlyMon Runtime</desc>
			<v:textBlock v:margins="rect(4,4,4,4)" v:tabSpace="42.5197"/>
			<v:textRect cx="60.2362" cy="273.167" width="120.48" height="22.6772"/>
			<rect x="0" y="261.829" width="120.472" height="22.6772" class="st16"/>
			<text x="11.95" y="277.37" class="st17" v:langID="2052"><v:paragraph v:horizAlign="1"/><v:tabList/>FlyMon Runtime</text>		</g>
		<g id="shape32-56" v:mID="32" v:groupContext="shape" transform="translate(191.669,-84.8256)">
			<title>矩形.32</title>
			<v:userDefs>
				<v:ud v:nameU="visVersion" v:val="VT0(15):26"/>
			</v:userDefs>
			<rect x="0" y="244.742" width="297.638" height="39.7638" class="st13"/>
		</g>
		<g id="shape33-58" v:mID="33" v:groupContext="shape" transform="translate(203.377,-88.9714)">
			<title>矩形.33</title>
			<desc>Compressed Key Interfaces</desc>
			<v:userDefs>
				<v:ud v:nameU="visVersion" v:val="VT0(15):26"/>
			</v:userDefs>
			<v:textBlock v:margins="rect(4,4,4,4)" v:tabSpace="42.5197"/>
			<v:textRect cx="55.1406" cy="275.923" width="110.29" height="17.1654"/>
			<path d="M0 284.51 L110.28 284.51 L110.28 267.34 L0 267.34 L0 284.51 Z" class="st18"/>
			<text x="5.59" y="278.62" class="st19" v:langID="2052"><v:paragraph v:horizAlign="1"/><v:tabList/>Compressed Key Interfaces</text>		</g>
		<g id="shape34-61" v:mID="34" v:groupContext="shape" transform="translate(317.472,-88.9714)">
			<title>矩形.34</title>
			<desc>Table Interfaces</desc>
			<v:userDefs>
				<v:ud v:nameU="visVersion" v:val="VT0(15):26"/>
			</v:userDefs>
			<v:textBlock v:margins="rect(4,4,4,4)" v:tabSpace="42.5197"/>
			<v:textRect cx="35.1048" cy="275.923" width="70.21" height="17.1654"/>
			<path d="M0 284.51 L70.21 284.51 L70.21 267.34 L0 267.34 L0 284.51 Z" class="st18"/>
			<text x="5.86" y="278.62" class="st19" v:langID="2052"><v:paragraph v:horizAlign="1"/><v:tabList/>Table Interfaces</text>		</g>
		<g id="shape38-64" v:mID="38" v:groupContext="shape" transform="translate(276.708,-103.836)">
			<title>工作表.38</title>
			<desc>CMU-Group Abstraction</desc>
			<v:textBlock v:margins="rect(4,4,4,4)" v:tabSpace="42.5197"/>
			<v:textRect cx="63.7795" cy="273.167" width="127.56" height="22.6772"/>
			<rect x="0" y="261.829" width="127.559" height="22.6772" class="st16"/>
			<text x="4.87" y="276.77" class="st14" v:langID="2052"><v:paragraph v:horizAlign="1"/><v:tabList/>CMU-Group Abstraction</text>		</g>
		<g id="shape39-67" v:mID="39" v:groupContext="shape" transform="translate(391.172,-89.0857)">
			<title>矩形.39</title>
			<desc>Memory Interfaces</desc>
			<v:userDefs>
				<v:ud v:nameU="visVersion" v:val="VT0(15):26"/>
			</v:userDefs>
			<v:textBlock v:margins="rect(4,4,4,4)" v:tabSpace="42.5197"/>
			<v:textRect cx="42.5197" cy="275.98" width="85.04" height="17.0511"/>
			<path d="M0 284.51 L85.04 284.51 L85.04 267.45 L0 267.45 L0 284.51 Z" class="st18"/>
			<text x="7.6" y="278.68" class="st19" v:langID="2052"><v:paragraph v:horizAlign="1"/><v:tabList/>Memory Interfaces</text>		</g>
		<g id="shape42-70" v:mID="42" v:groupContext="shape" transform="translate(198.755,-157.316)">
			<title>工作表.42</title>
			<desc>Control Plane</desc>
			<v:textBlock v:margins="rect(4,4,4,4)" v:tabSpace="42.5197"/>
			<v:textRect cx="28.3465" cy="266.789" width="56.7" height="35.4331"/>
			<rect x="0" y="249.073" width="56.6929" height="35.4331" class="st16"/>
			<text x="4" y="262.59" class="st17" v:langID="2052"><v:paragraph/><v:tabList/>Control<v:newlineChar/><tspan x="4"
						dy="1.2em" class="st20">Plane</tspan></text>		</g>
		<g id="shape10-74" v:mID="10" v:groupContext="shape" transform="translate(264.773,-155.078)">
			<title>矩形</title>
			<desc>Resource Manager</desc>
			<v:userDefs>
				<v:ud v:nameU="visVersion" v:val="VT0(15):26"/>
			</v:userDefs>
			<v:textBlock v:margins="rect(4,4,4,4)" v:tabSpace="42.5197"/>
			<v:textRect cx="54.6606" cy="275.923" width="109.33" height="17.1654"/>
			<rect x="0" y="267.34" width="109.321" height="17.1654" class="st13"/>
			<text x="8.85" y="279.52" class="st14" v:langID="2052"><v:paragraph v:horizAlign="1"/><v:tabList/>Resource Manager</text>		</g>
		<g id="shape14-77" v:mID="14" v:groupContext="shape" transform="translate(379.384,-155.078)">
			<title>矩形.14</title>
			<desc>Data Collector</desc>
			<v:userDefs>
				<v:ud v:nameU="visVersion" v:val="VT0(15):26"/>
			</v:userDefs>
			<v:textBlock v:margins="rect(4,4,4,4)" v:tabSpace="42.5197"/>
			<v:textRect cx="54.9615" cy="275.923" width="109.93" height="17.1654"/>
			<rect x="0" y="267.34" width="109.923" height="17.1654" class="st13"/>
			<text x="20.25" y="279.52" class="st14" v:langID="2052"><v:paragraph v:horizAlign="1"/><v:tabList/>Data Collector</text>		</g>
		<g id="shape41-80" v:mID="41" v:groupContext="shape" transform="translate(264.773,-176.338)">
			<title>矩形.41</title>
			<desc>Task Manager</desc>
			<v:userDefs>
				<v:ud v:nameU="visVersion" v:val="VT0(15):26"/>
			</v:userDefs>
			<v:textBlock v:margins="rect(4,4,4,4)" v:tabSpace="42.5197"/>
			<v:textRect cx="112.261" cy="275.923" width="224.53" height="17.1654"/>
			<rect x="0" y="267.34" width="224.521" height="17.1654" class="st13"/>
			<text x="78.1" y="279.52" class="st14" v:langID="2052"><v:paragraph v:horizAlign="1"/><v:tabList/>Task Manager</text>		</g>
		<g id="shape45-83" v:mID="45" v:groupContext="shape" transform="translate(191.669,-36.5452)">
			<title>工作表.45</title>
			<desc>FlyMon Data Plane</desc>
			<v:textBlock v:margins="rect(4,4,4,4)" v:tabSpace="42.5197"/>
			<v:textRect cx="63.7795" cy="273.167" width="127.56" height="22.6772"/>
			<rect x="0" y="261.829" width="127.559" height="22.6772" class="st16"/>
			<text x="8.8" y="277.37" class="st17" v:langID="2052"><v:paragraph v:horizAlign="1"/><v:tabList/>FlyMon Data Plane</text>		</g>
		<g id="shape46-86" v:mID="46" v:groupContext="shape" transform="translate(89.2558,-84.958)">
			<title>六边形</title>
			<desc>FlyMon Compiler</desc>
			<v:userDefs>
				<v:ud v:nameU="visVersion" v:val="VT0(15):26"/>
			</v:userDefs>
			<v:textBlock v:margins="rect(4,4,4,4)" v:tabSpace="42.5197"/>
			<v:textRect cx="24.8032" cy="264.624" width="49.61" height="39.7638"/>
			<path d="M39.12 244.74 L10.48 244.74 L-3.84 264.62 L10.48 284.51 L39.12 284.51 L53.44 264.62 L39.12 244.74 Z"
					class="st21"/>
			<text x="9.17" y="261.62" class="st22" v:langID="2052"><v:paragraph v:horizAlign="1"/><v:tabList/>FlyMon<v:newlineChar/><tspan
						x="5.97" dy="1.2em" class="st20">Compiler</tspan></text>		</g>
		<g id="shape47-90" v:mID="47" v:groupContext="shape" transform="translate(95.22,-151.522)">
			<title>剪去单角的矩形</title>
			<desc>Data Plane Configs</desc>
			<v:userDefs>
				<v:ud v:nameU="CTypeTopLeftSnip" v:prompt="" v:val="VT0(0):5"/>
				<v:ud v:nameU="CTypeTopRightSnip" v:prompt="" v:val="VT0(1):5"/>
				<v:ud v:nameU="CTypeBotLeftSnip" v:prompt="" v:val="VT0(1):5"/>
				<v:ud v:nameU="CTypeBotRightSnip" v:prompt="" v:val="VT0(0):5"/>
				<v:ud v:nameU="CornerLockHoriz" v:prompt="" v:val="VT0(0):5"/>
				<v:ud v:nameU="CornerLockVert" v:prompt="" v:val="VT0(0):5"/>
				<v:ud v:nameU="CornerLockDiag" v:prompt="" v:val="VT0(0):5"/>
				<v:ud v:nameU="TopLeftOffset" v:prompt="" v:val="VT0(0):24"/>
				<v:ud v:nameU="TopRightOffset" v:prompt="" v:val="VT0(0.15748031496063):24"/>
				<v:ud v:nameU="BotLeftOffset" v:prompt="" v:val="VT0(0):24"/>
				<v:ud v:nameU="BotRightOffset" v:prompt="" v:val="VT0(0):24"/>
				<v:ud v:nameU="visVersion" v:prompt="" v:val="VT0(15):26"/>
				<v:ud v:nameU="TopRightOffset" v:prompt="" v:val="VT0(0.051377954149798):1"/>
			</v:userDefs>
			<v:textBlock v:margins="rect(4,4,4,4)" v:tabSpace="42.5197"/>
			<v:textRect cx="18.4961" cy="265.636" width="37" height="37.7394"/>
			<path d="M0 284.51 L36.99 284.51 L36.99 250.47 L33.29 246.77 L0 246.77 L0 284.51 Z" class="st23"/>
			<text x="10.86" y="258.44" class="st24" v:langID="2052"><v:paragraph v:horizAlign="1"/><v:tabList/>Data<v:newlineChar/><tspan
						x="9.5" dy="1.2em" class="st20">Plane<v:newlineChar/></tspan><tspan x="6.57" dy="1.2em" class="st20">Configs</tspan></text>		</g>
		<g id="shape48-95" v:mID="48" v:groupContext="shape" transform="translate(90.536,393.767) rotate(180)">
			<title>普通箭头</title>
			<v:userDefs>
				<v:ud v:nameU="visVersion" v:val="VT0(15):26"/>
				<v:ud v:nameU="ArrowType" v:prompt="" v:val="VT0(2):26"/>
			</v:userDefs>
			<path d="M0 284.51 L9.92 276.66 L9.92 280.58 L19.34 280.58 L19.34 284.51 L19.34 288.43 L9.92 288.43 L9.92 292.35 L0 284.51
						 Z" class="st25"/>
		</g>
		<g id="shape49-97" v:mID="49" v:groupContext="shape" transform="translate(-170.79,157.092) rotate(-90)">
			<title>普通箭头.49</title>
			<v:userDefs>
				<v:ud v:nameU="visVersion" v:val="VT0(15):26"/>
				<v:ud v:nameU="ArrowType" v:prompt="" v:val="VT0(2):26"/>
			</v:userDefs>
			<path d="M0 284.51 L9.92 276.66 L9.92 280.58 L18.43 280.58 L18.43 284.51 L18.43 288.43 L9.92 288.43 L9.92 292.35 L0 284.51
						 Z" class="st25"/>
		</g>
		<g id="shape50-99" v:mID="50" v:groupContext="shape" transform="translate(18.375,-138.435)">
			<title>工作表.50</title>
			<desc>Operator</desc>
			<v:textBlock v:margins="rect(4,4,4,4)" v:tabSpace="42.5197"/>
			<v:textRect cx="35.1048" cy="274.506" width="70.21" height="20"/>
			<rect x="0" y="264.506" width="70.2097" height="20" class="st16"/>
			<text x="12.76" y="278.11" class="st14" v:langID="2052"><v:paragraph v:horizAlign="1"/><v:tabList/>Operator</text>		</g>
		<g id="shape124-102" v:mID="124" v:groupContext="shape" v:layerMember="0" transform="translate(142.699,-111.86)">
			<title>动态连接线</title>
			<path d="M0 291.53 L40.69 291.64" class="st26"/>
		</g>
		<g id="shape125-108" v:mID="125" v:groupContext="shape" v:layerMember="0" transform="translate(142.699,-104.84)">
			<title>动态连接线.125</title>
			<path d="M0 284.51 L9.66 284.51 L9.66 351.34 L40.69 351.34" class="st26"/>
		</g>
		<g id="shape127-113" v:mID="127" v:groupContext="shape" transform="translate(136.919,-106.844)">
			<title>工作表.127</title>
			<desc>CMU-Groups .json</desc>
			<v:textBlock v:margins="rect(4,4,4,4)" v:tabSpace="42.5197"/>
			<v:textRect cx="28.3465" cy="276.711" width="56.7" height="15.5906"/>
			<rect x="0" y="268.915" width="56.6929" height="15.5906" class="st16"/>
			<text x="7.21" y="274.31" class="st24" v:langID="2052"><v:paragraph v:horizAlign="1"/><v:tabList/>CMU-Groups<v:newlineChar/><tspan
						x="20.6" dy="1.2em" class="st20">.json</tspan></text>		</g>
		<g id="shape128-117" v:mID="128" v:groupContext="shape" transform="translate(151.984,-40.2404)">
			<title>工作表.128</title>
			<desc>flymon .p4</desc>
			<v:textBlock v:margins="rect(4,4,4,4)" v:tabSpace="42.5197"/>
			<v:textRect cx="17.7165" cy="276.711" width="35.44" height="15.5906"/>
			<rect x="0" y="268.915" width="35.4331" height="15.5906" class="st16"/>
			<text x="6.36" y="274.31" class="st24" v:langID="2052"><v:paragraph v:horizAlign="1"/><v:tabList/>flymon<v:newlineChar/><tspan
						x="12.58" dy="1.2em" class="st20">.p4</tspan></text>		</g>
		<g id="group129-121" transform="translate(453.874,-216.9)" v:mID="129" v:groupContext="group">
			<v:userDefs>
				<v:ud v:nameU="SkinColor" v:prompt="" v:val="VT5(#da8c36)"/>
				<v:ud v:nameU="visVersion" v:prompt="" v:val="VT0(15):26"/>
			</v:userDefs>
			<title>人 - 半身.129</title>
			<g id="shape130-122" v:mID="130" v:groupContext="shape" transform="translate(3.62866,-6.75952)">
				<title>工作表.130</title>
				<path d="M2.62 263.31 L2.42 263.39 A3.2163 3.2163 -180 0 0 0.59 266.15 L0.35 269.84 L0.19 272.51 L0 275.47 A3.10865
							 3.10865 -180 0 0 3.53 278 A16.7038 16.7038 -180 0 0 10.45 281.7 A165.553 165.553 -180 0 0 16.24 283.03
							 A8.24567 8.24567 -180 0 0 21.71 284.47 A8.87807 6.24831 -180 0 0 25.69 283.42 A4.4515 3.13293 -180 0
							 0 28.16 281.01 A229.977 161.856 -180 0 0 27.71 274.62 A458.878 322.954 -180 0 0 27.45 271.95 A21.0719
							 14.8302 -180 0 0 26.8 268.81 A17.0734 12.0161 -180 0 0 18.16 261.95 L18.14 260.87 A6.51051 6.51051 -180
							 0 0 21.52 255.45 A7.48506 7.48506 -180 0 0 13.63 248.84 A7.38032 7.38032 -180 0 0 5.74 255.45 A6.19158
							 6.19158 -180 0 0 8.98 260.81 L2.78 263.25 L2.62 263.31 Z" class="st2"/>
			</g>
			<g id="shape131-124" v:mID="131" v:groupContext="shape" transform="translate(3.95153,-7.51386)">
				<title>工作表.131</title>
				<path d="M0.36 269.84 L0.59 266.15 A6.51788 6.51788 0 0 1 10.97 263.78 A13.8625 13.8625 0 0 1 20.92 279.99 L21.71
							 284.47 A8.24567 8.24567 0 0 1 16.24 283.03 A165.553 165.553 0 0 1 10.45 281.7 A16.7038 16.7038 0 0 1
							 3.54 278 A3.10865 3.10865 0 0 1 0 275.47 L0.19 272.51 L0.36 269.84 Z" class="st28"/>
			</g>
			<g id="shape132-128" v:mID="132" v:groupContext="shape" transform="translate(6.37756,-20.6129)">
				<title>工作表.132</title>
				<path d="M17.08 284.51 L24.37 281.91 A17.0734 12.0161 -180 0 0 6.58 273.89 L0 276.49 A16.7788 11.8088 0 0 1 17.08
							 284.51 Z" class="st29"/>
			</g>
			<g id="shape133-132" v:mID="133" v:groupContext="shape" transform="translate(23.4595,-7.56159)">
				<title>工作表.133</title>
				<path d="M0 271.45 A5.94201 4.18194 0 0 1 7.29 268.86 A21.0719 14.8302 0 0 1 7.94 272 A458.878 322.954 0 0 1 8.2
							 274.67 A229.977 161.856 0 0 1 8.65 281.06 A4.4515 3.13293 0 0 1 6.18 283.47 A8.11829 5.71358 0 0 1 1.08
							 284.5 L0 271.45 Z" class="st30"/>
			</g>
			<g id="shape134-140" v:mID="134" v:groupContext="shape" transform="translate(13.3246,-28.1847)">
				<title>工作表.134</title>
				<path d="M0.21 281.62 L0.25 283 A3.29727 3.29727 -180 0 0 3.95 284.21 A11.2278 11.2278 -180 0 0 8.8 283.74 L8.76
							 281.15 A9.70649 9.70649 0 0 1 0.36 281.57 L0.21 281.62 Z" class="st31"/>
				<path d="M0.21 281.62 L0.25 283 A3.29727 3.29727 -180 0 0 3.95 284.21 A11.2278 11.2278 -180 0 0 8.8 283.74 L8.76
							 281.15 A9.70649 9.70649 0 0 1 0.36 281.57" class="st7"/>
			</g>
			<g id="shape135-145" v:mID="135" v:groupContext="shape" transform="translate(9.6949,-30.0246)">
				<title>工作表.135</title>
				<path d="M15.78 277.96 A7.25175 7.25175 0 0 1 7.89 284.51 A7.15742 7.15742 0 0 1 0 277.96 A7.38032 7.38032 0 0 1
							 7.89 271.35 A7.48506 7.48506 0 0 1 15.78 277.96 L-3.95 268.06 L15.78 277.96 Z" class="st8"/>
				<path d="M15.78 277.96 A7.25175 7.25175 0 0 1 7.89 284.51 A7.15742 7.15742 0 0 1 0 277.96 A7.38032 7.38032 0 0 1
							 7.89 271.35 A7.48506 7.48506 0 0 1 15.78 277.96" class="st9"/>
			</g>
			<g id="shape136-149" v:mID="136" v:groupContext="shape" transform="translate(7.59456,-9.16292)">
				<title>工作表.136</title>
				<path d="M0 279.47 L0 271.39 L0 279.47 ZM12.62 284.51 L12.62 276.42 L12.62 284.51 Z" class="st10"/>
				<path d="M0 279.47 L0 271.39M12.62 284.51 L12.62 276.42" class="st32"/>
			</g>
			<g id="shape137-152" v:mID="137" v:groupContext="shape" transform="translate(3.95014,-7.52275)">
				<title>工作表.137</title>
				<path d="M24.33 283.94 A4.83214 4.83214 -180 0 0 28.16 281.02 A154.326 154.326 -180 0 0 27.33 270.92 A10.9853 10.9853
							 -180 0 0 21.36 263.39 A11.2414 11.2414 -180 0 0 18.21 261.98 L18.14 260.89 A6.47339 6.47339 -180 0 0
							 21.53 255.46 A7.29634 7.29634 -180 0 0 13.64 248.85 A7.29552 7.29552 -180 0 0 5.74 255.46 A6.31734 6.31734
							 -180 0 0 9 260.8 L2.43 263.4 A3.20651 3.20651 -180 0 0 0.59 266.15 L0 275.48 A1.7869 1.7869 -180 0 0
							 0.59 276.94 A4.62331 4.62331 -180 0 0 3.54 278.01 A24.2783 24.2783 -180 0 0 16.24 283.04 A8.82265 8.82265
							 -180 0 0 24.33 283.94 Z" class="st12"/>
			</g>
		</g>
		<g id="shape138-154" v:mID="138" v:groupContext="shape" transform="translate(375.921,-216.9)">
			<title>剪去单角的矩形.138</title>
			<desc>TASK key attribute memory</desc>
			<v:userDefs>
				<v:ud v:nameU="CTypeTopLeftSnip" v:prompt="" v:val="VT0(0):5"/>
				<v:ud v:nameU="CTypeTopRightSnip" v:prompt="" v:val="VT0(1):5"/>
				<v:ud v:nameU="CTypeBotLeftSnip" v:prompt="" v:val="VT0(1):5"/>
				<v:ud v:nameU="CTypeBotRightSnip" v:prompt="" v:val="VT0(0):5"/>
				<v:ud v:nameU="CornerLockHoriz" v:prompt="" v:val="VT0(0):5"/>
				<v:ud v:nameU="CornerLockVert" v:prompt="" v:val="VT0(0):5"/>
				<v:ud v:nameU="CornerLockDiag" v:prompt="" v:val="VT0(0):5"/>
				<v:ud v:nameU="TopLeftOffset" v:prompt="" v:val="VT0(0):24"/>
				<v:ud v:nameU="TopRightOffset" v:prompt="" v:val="VT0(0.15748031496063):24"/>
				<v:ud v:nameU="BotLeftOffset" v:prompt="" v:val="VT0(0):24"/>
				<v:ud v:nameU="BotRightOffset" v:prompt="" v:val="VT0(0):24"/>
				<v:ud v:nameU="visVersion" v:prompt="" v:val="VT0(15):26"/>
				<v:ud v:nameU="TopRightOffset" v:prompt="" v:val="VT0(0.059251936795527):1"/>
			</v:userDefs>
			<v:textBlock v:margins="rect(4,4,4,4)" v:tabSpace="42.5197"/>
			<v:textRect cx="21.3307" cy="262.744" width="42.67" height="43.5232"/>
			<path d="M0 284.51 L42.66 284.51 L42.66 245.25 L38.4 240.98 L0 240.98 L0 284.51 Z" class="st23"/>
			<text x="11.79" y="249.24" class="st33" v:langID="2052"><v:paragraph v:horizAlign="1"/><v:tabList/>TASK<v:newlineChar/><tspan
						x="15.01" dy="1.2em" class="st34">key<v:newlineChar/></tspan><tspan x="5.08" dy="1.2em" class="st34">attribute<v:newlineChar/></tspan><tspan
						x="5.92" dy="1.2em" class="st34">memory</tspan></text>		</g>
		<g id="shape139-160" v:mID="139" v:groupContext="shape" transform="translate(35.7633,-27.2183)">
			<title>剪去单角的矩形.139</title>
			<desc>flymon .p4_template</desc>
			<v:userDefs>
				<v:ud v:nameU="CTypeTopLeftSnip" v:prompt="" v:val="VT0(0):5"/>
				<v:ud v:nameU="CTypeTopRightSnip" v:prompt="" v:val="VT0(1):5"/>
				<v:ud v:nameU="CTypeBotLeftSnip" v:prompt="" v:val="VT0(1):5"/>
				<v:ud v:nameU="CTypeBotRightSnip" v:prompt="" v:val="VT0(0):5"/>
				<v:ud v:nameU="CornerLockHoriz" v:prompt="" v:val="VT0(0):5"/>
				<v:ud v:nameU="CornerLockVert" v:prompt="" v:val="VT0(0):5"/>
				<v:ud v:nameU="CornerLockDiag" v:prompt="" v:val="VT0(0):5"/>
				<v:ud v:nameU="TopLeftOffset" v:prompt="" v:val="VT0(0):24"/>
				<v:ud v:nameU="TopRightOffset" v:prompt="" v:val="VT0(0.15748031496063):24"/>
				<v:ud v:nameU="BotLeftOffset" v:prompt="" v:val="VT0(0):24"/>
				<v:ud v:nameU="BotRightOffset" v:prompt="" v:val="VT0(0):24"/>
				<v:ud v:nameU="visVersion" v:prompt="" v:val="VT0(15):26"/>
				<v:ud v:nameU="TopRightOffset" v:prompt="" v:val="VT0(0.078740160426672):1"/>
			</v:userDefs>
			<v:textBlock v:margins="rect(4,4,4,4)" v:tabSpace="42.5197"/>
			<v:textRect cx="28.3465" cy="273.167" width="56.7" height="22.6772"/>
			<path d="M0 284.51 L56.69 284.51 L56.69 267.5 L51.02 261.83 L0 261.83 L0 284.51 Z" class="st23"/>
			<text x="16.99" y="270.77" class="st24" v:langID="2052"><v:paragraph v:horizAlign="1"/><v:tabList/>flymon<v:newlineChar/><tspan
						x="6.42" dy="1.2em" class="st20">.p4_template</tspan></text>		</g>
		<g id="shape140-164" v:mID="140" v:groupContext="shape" v:layerMember="0" transform="translate(64.1098,-49.8955)">
			<title>动态连接线.140</title>
			<path d="M0 284.51 L0 229.56 L13.03 229.56" class="st26"/>
		</g>
		<g id="shape142-169" v:mID="142" v:groupContext="shape" transform="translate(443.244,-206.27)">
			<title>工作表.142</title>
			<desc>User</desc>
			<v:textBlock v:margins="rect(4,4,4,4)" v:tabSpace="42.5197"/>
			<v:textRect cx="28.3465" cy="274.506" width="56.7" height="20"/>
			<rect x="0" y="264.506" width="56.6929" height="20" class="st16"/>
			<text x="17.07" y="278.11" class="st14" v:langID="2052"><v:paragraph v:horizAlign="1"/><v:tabList/>User</text>		</g>
		<g id="shape143-172" v:mID="143" v:groupContext="shape" transform="translate(426.551,-232.959)">
			<title>普通箭头.143</title>
			<v:userDefs>
				<v:ud v:nameU="visVersion" v:val="VT0(15):26"/>
				<v:ud v:nameU="ArrowType" v:prompt="" v:val="VT0(2):26"/>
			</v:userDefs>
			<path d="M0 284.51 L9.92 276.66 L9.92 280.58 L20.24 280.58 L20.24 284.51 L20.24 288.43 L9.92 288.43 L9.92 292.35 L0 284.51
						 Z" class="st35"/>
		</g>
		<g id="shape146-174" v:mID="146" v:groupContext="shape" transform="translate(84.4701,80.7953) rotate(-90)">
			<title>圆角右箭头</title>
			<v:userDefs>
				<v:ud v:nameU="visVersion" v:prompt="" v:val="VT0(15):26"/>
			</v:userDefs>
			<path d="M0 284.51 L7.17 284.51 L7.17 267.4 A11.335 11.335 0 0 1 18.5 256.06 L29.84 256.06 L29.84 263.1 L39.76 252.47
						 L29.84 241.84 L29.84 248.89 L18.5 248.89 A18.4981 18.4981 -180 0 0 0 267.4 L0 284.51 Z" class="st35"/>
		</g>
		<g id="shape148-176" v:mID="148" v:groupContext="shape" transform="translate(102.72,-50.7184)">
			<title>圆形</title>
			<desc>1</desc>
			<v:userDefs>
				<v:ud v:nameU="visVersion" v:val="VT0(15):26"/>
			</v:userDefs>
			<v:textBlock v:margins="rect(4,4,4,4)" v:tabSpace="42.5197"/>
			<v:textRect cx="11.3386" cy="273.167" width="19.85" height="17.0079"/>
			<path d="M0 273.17 A11.3386 11.3386 0 0 1 22.68 273.17 A11.3386 11.3386 0 1 1 0 273.17 Z" class="st36"/>
			<text x="5.42" y="280.37" class="st37" v:langID="2052"><v:paragraph v:horizAlign="1"/><v:tabList/>1</text>		</g>
		<g id="shape151-179" v:mID="151" v:groupContext="shape" transform="translate(296.692,-220.797)">
			<title>圆形.151</title>
			<desc>2</desc>
			<v:userDefs>
				<v:ud v:nameU="visVersion" v:val="VT0(15):26"/>
			</v:userDefs>
			<v:textBlock v:margins="rect(4,4,4,4)" v:tabSpace="42.5197"/>
			<v:textRect cx="11.3386" cy="273.167" width="19.85" height="17.0079"/>
			<path d="M0 273.17 A11.3386 11.3386 0 0 1 22.68 273.17 A11.3386 11.3386 0 1 1 0 273.17 Z" class="st36"/>
			<text x="5.42" y="280.37" class="st37" v:langID="2052"><v:paragraph v:horizAlign="1"/><v:tabList/>2</text>		</g>
		<g id="shape153-182" v:mID="153" v:groupContext="shape" transform="translate(776.576,42.8032) rotate(90)">
			<title>手杖形箭头</title>
			<v:userDefs>
				<v:ud v:nameU="ArrowWidth" v:prompt="" v:val="VT0(0.39370078740157):24"/>
				<v:ud v:nameU="BarWidth" v:prompt="" v:val="VT0(0.19685039370079):24"/>
				<v:ud v:nameU="visVersion" v:prompt="" v:val="VT0(15):26"/>
				<v:ud v:nameU="ArrowWidth" v:prompt="" v:val="VT0(0.19685034):1"/>
				<v:ud v:nameU="BarWidth" v:prompt="" v:val="VT0(0.10225265):1"/>
			</v:userDefs>
			<path d="M0 284.51 L7.36 284.51 L7.36 256.87 A1.99255 1.99255 0 0 1 9.36 254.88 L70.51 254.88 A1.99255 1.99255 0 0 1
						 72.5 256.87 L72.5 273.1 L69.09 273.1 L76.18 284.51 L83.27 273.1 L79.86 273.1 L79.86 256.87 A9.3524 9.3524
						 -180 0 0 70.51 247.51 L9.36 247.51 A9.3524 9.3524 -180 0 0 -0 256.87 L0 284.51 Z" class="st1"/>
		</g>
		<g id="shape154-184" v:mID="154" v:groupContext="shape" transform="translate(506.385,-128.671)">
			<title>圆形.154</title>
			<desc>3</desc>
			<v:userDefs>
				<v:ud v:nameU="visVersion" v:val="VT0(15):26"/>
			</v:userDefs>
			<v:textBlock v:margins="rect(4,4,4,4)" v:tabSpace="42.5197"/>
			<v:textRect cx="11.3386" cy="273.167" width="19.85" height="17.0079"/>
			<path d="M0 273.17 A11.3386 11.3386 0 0 1 22.68 273.17 A11.3386 11.3386 0 1 1 0 273.17 Z" class="st36"/>
			<text x="5.42" y="280.37" class="st37" v:langID="2052"><v:paragraph v:horizAlign="1"/><v:tabList/>3</text>		</g>
	</g>
</svg>
